<?xml version="1.0" encoding="UTF-8" standalone="no"?><!-- Generator: Gravit.io --><svg xmlns="http://www.w3.org/2000/svg" xmlns:xlink="http://www.w3.org/1999/xlink" style="isolation:isolate" viewBox="0 0 512 512" width="512pt" height="512pt"><defs><clipPath id="_clipPath_dFKgVZoSSPGKYCwHr47KIpyp6rQ0EP04"><rect width="512" height="512"/></clipPath></defs><g clip-path="url(#_clipPath_dFKgVZoSSPGKYCwHr47KIpyp6rQ0EP04)"><rect width="512" height="512" style="fill:rgb(235,251,255)"/><g><path d=" M 551.914 405.256 L 551.998 439.239 C 534.041 427.212 487.185 426.448 469.229 438.475 L 468.723 438.813 C 450.705 450.881 405.949 450.883 387.923 438.817 L 387.552 438.569 C 369.488 426.478 324.607 426.512 306.667 438.632 C 288.723 450.752 243.835 450.785 225.776 438.69 L 225.455 438.475 C 207.434 426.405 162.669 426.405 144.649 438.475 L 144.143 438.813 C 126.125 450.881 81.369 450.883 63.343 438.817 L 62.8 438.454 C 44.838 426.431 -0.046 426.433 -18 438.458 L -18 405.514 C -18 389.782 32.885 382.424 58.473 394.598 C 60.044 395.345 61.493 396.156 62.8 397.031 L 63.343 397.395 C 81.369 409.46 126.125 409.458 144.143 397.391 L 144.649 397.052 C 162.669 384.983 207.434 384.983 225.455 397.052 L 225.776 397.267 C 243.835 409.362 288.724 409.33 306.667 397.209 C 324.607 385.09 369.488 385.055 387.552 397.146 L 387.923 397.395 C 405.949 409.46 450.705 409.458 468.723 397.391 L 469.229 397.052 C 487.186 385.025 534.011 393.227 551.967 405.254" fill="rgb(93,227,255)"/><path d=" M 469.229 397.052 L 468.723 397.39 C 450.701 409.459 405.938 409.459 387.917 397.39 L 387.554 397.147 C 369.554 385.098 324.545 385.132 306.668 397.209 C 297.823 403.184 282.338 406.206 266.767 406.28 L 266.767 447.703 C 282.337 447.629 297.823 444.607 306.668 438.632 C 324.545 426.556 369.554 426.521 387.554 438.57 L 387.924 438.818 C 405.942 450.885 450.699 450.885 468.719 438.818 L 469.231 438.475 C 487.188 426.448 534.043 427.213 552 439.24 L 551.969 405.254 C 551.961 396.243 533.806 388.656 510.677 388.388 C 494.455 388.2 478.223 391.028 469.229 397.052 L 469.229 397.052 Z " fill="rgb(12,201,255)"/><path d=" M 538.006 512 L -4.007 512 C -11.735 512 -18 509.56 -18 506.551 L -18 465.958 L 551.999 465.958 L 551.999 506.551 C 551.999 509.56 545.734 512 538.006 512 L 538.006 512 Z " fill="rgb(0,130,255)"/><path d=" M 551.96 438.751 L 551.998 480.229 C 534.041 468.202 487.185 467.437 469.229 479.464 L 468.723 479.803 C 450.769 491.828 405.885 491.83 387.923 479.807 L 387.553 479.559 C 369.552 467.511 324.544 467.545 306.667 479.621 C 288.787 491.699 243.77 491.731 225.775 479.679 L 225.455 479.464 C 207.497 467.437 162.606 467.437 144.649 479.464 L 144.143 479.803 C 126.189 491.828 81.305 491.83 63.343 479.807 L 62.8 479.444 C 44.838 467.42 -0.046 467.422 -18 479.447 L -18 438.024 C -0.046 425.999 44.838 425.997 62.8 438.02 L 63.343 438.384 C 81.305 450.407 126.188 450.405 144.143 438.38 L 144.649 438.041 C 162.606 426.014 207.497 426.014 225.455 438.041 L 225.775 438.256 C 243.77 450.308 288.788 450.276 306.667 438.198 C 324.544 426.122 369.552 426.087 387.553 438.136 L 387.923 438.384 C 405.885 450.407 450.768 450.405 468.723 438.38 L 469.229 438.041 C 487.186 426.014 534.003 426.724 551.96 438.751" fill="rgb(12,201,255)"/><path d=" M 266.767 512 L 538.006 512 C 545.734 512 551.999 509.56 551.999 506.551 L 551.999 465.958 L 266.767 465.958 L 266.767 512 Z " fill="rgb(0,35,71)"/><path d=" M 469.229 438.041 L 468.723 438.38 C 450.768 450.405 405.885 450.407 387.923 438.384 L 387.553 438.136 C 369.552 426.087 324.544 426.121 306.667 438.198 C 297.822 444.172 282.337 447.195 266.766 447.269 L 266.766 488.692 C 282.336 488.618 297.822 485.596 306.667 479.621 C 324.544 467.545 369.552 467.51 387.553 479.559 L 387.923 479.807 C 405.885 491.83 450.769 491.828 468.723 479.803 L 469.229 479.464 C 487.186 467.437 534.041 468.202 551.998 480.229 L 551.96 438.751 C 534.003 426.724 487.186 426.014 469.229 438.041 L 469.229 438.041 Z " fill="rgb(0,161,255)"/></g><g><path d=" M -156.813 360.474 C -116.884 357.611 -75.367 356 -32.489 356 C 268.341 356 512 432.053 512 526 C 512 619.947 268.341 696 -32.489 696 C -333.318 696 -576.977 619.947 -576.977 526 C -576.977 459.968 -456.736 402.884 -280.911 374.611 L -156.813 360.474 Z " fill="rgb(242,156,31)"/><path d=" M 270.809 228.988 L 185.799 346.483 L 122.947 434.67 C 119.289 439.811 113.166 442.609 106.884 442.012 C 100.603 441.414 95.118 437.51 92.495 431.772 C 89.873 426.033 90.511 419.331 94.169 414.19 L 137.513 353.457 L 242.119 208.508 L 270.809 228.988 Z " fill="rgb(0,35,71)"/><g><circle vector-effect="non-scaling-stroke" cx="282.4441987577546" cy="455.3448275862069" r="8.82758620689657" fill="rgb(229,126,37)"/><circle vector-effect="non-scaling-stroke" cx="255.96144013706493" cy="437.6896551724137" r="8.827586206896555" fill="rgb(229,126,37)"/><circle vector-effect="non-scaling-stroke" cx="238.3062677232718" cy="464.1724137931034" r="8.827586206896541" fill="rgb(229,126,37)"/></g><circle vector-effect="non-scaling-stroke" cx="158.78418296969153" cy="468.93103448275855" r="22.068965517241367" fill="rgb(210,86,39)"/><path d=" M 404.812 39.371 L 379.653 72.828 C 375.063 69.208 370.384 65.677 365.529 62.234 C 360.674 58.792 355.73 55.437 350.787 52.436 L 376.034 18.803 C 381.737 10.918 392.73 9.106 400.663 14.742 C 404.519 17.425 407.104 21.574 407.813 26.218 C 408.622 30.828 407.541 35.569 404.812 39.371 Z " fill="rgb(0,35,71)"/><path d=" M 384.067 68.414 C 379.477 64.794 374.798 61.263 369.943 57.821 C 365.088 54.378 360.144 51.023 355.201 48.022 C 251.124 -18.45 129.744 -15.89 78.456 56.055 L 73.248 89.688 C 72.7 92.982 74.068 96.301 76.779 98.251 L 101.143 115.553 L 125.419 132.855 C 128.141 134.802 131.731 135.041 134.688 133.473 L 164.701 117.583 L 159.493 151.128 C 158.971 154.419 160.334 157.725 163.024 159.691 L 237.706 212.921 L 266.395 233.401 L 341.077 286.632 C 343.811 288.544 347.381 288.782 350.346 287.25 L 380.359 271.272 L 375.063 304.905 C 374.591 308.209 375.983 311.504 378.682 313.468 L 403.046 330.77 L 427.322 348.072 C 430.045 350.018 433.634 350.257 436.591 348.69 L 466.605 332.8 C 517.893 260.767 480.817 145.302 384.067 68.414 L 384.067 68.414 Z " fill="rgb(255,83,100)"/><path d=" M 466.605 332.8 L 380.359 271.272 C 434.119 195.884 429.441 100.281 369.943 57.821 C 374.798 61.263 379.477 64.794 384.067 68.414 C 480.817 145.302 517.893 260.767 466.605 332.8 Z " fill="rgb(122,229,130)"/><path d=" M 380.359 271.272 L 164.701 117.583 C 218.55 42.108 310.357 15.36 369.943 57.821 C 429.529 100.281 434.119 195.884 380.359 271.272 Z " fill="rgb(0,165,207)"/><path d=" M 164.701 117.583 L 134.688 133.473 C 131.731 135.041 128.141 134.802 125.419 132.855 L 101.143 115.553 L 76.779 98.251 C 74.068 96.301 72.7 92.982 73.248 89.688 L 78.456 56.055 L 164.701 117.583 Z " fill="rgb(223,77,96)"/><path d=" M 466.605 332.8 L 436.591 348.69 C 433.634 350.257 430.045 350.018 427.322 348.072 L 403.046 330.77 L 378.682 313.468 C 375.983 311.504 374.591 308.209 375.063 304.905 L 380.359 271.272 L 466.605 332.8 Z " fill="rgb(115,206,121)"/><path d=" M 380.359 271.272 L 350.346 287.25 C 347.381 288.782 343.811 288.544 341.077 286.632 L 266.395 233.401 L 237.706 212.921 L 163.024 159.691 C 160.334 157.725 158.971 154.419 159.493 151.128 L 164.701 117.583 L 380.359 271.272 Z " fill="rgb(3,152,189)"/><line x1="384.067" y1="68.414" x2="383.979" y2="68.502"/></g></g></svg>