<?xml version="1.0" encoding="UTF-8" standalone="no"?><!-- Generator: Gravit.io --><svg xmlns="http://www.w3.org/2000/svg" xmlns:xlink="http://www.w3.org/1999/xlink" style="isolation:isolate" viewBox="0 0 512 512" width="512pt" height="512pt"><defs><clipPath id="_clipPath_4pDsqjawWp15djZ6ZNOgVGMbNOJrTvWV"><rect width="512" height="512"/></clipPath></defs><g clip-path="url(#_clipPath_4pDsqjawWp15djZ6ZNOgVGMbNOJrTvWV)"><rect width="512" height="512" style="fill:rgb(235,251,255)"/><g><path d=" M 160 184 L 352 184 L 352 488 L 160 488 L 160 184 Z " fill="rgb(0,35,71)"/><path d=" M 64 136 L 160 136 L 160 488 L 64 488 L 64 136 Z " fill="rgb(0,165,207)"/><path d=" M 416 56 L 416 280 L 352 280 L 352 184 L 256 184 L 256 56 L 416 56 Z " fill="rgb(122,229,130)"/><path d=" M 352 280 L 448 280 L 448 488 L 352 488 L 352 280 Z " fill="rgb(235,251,255)"/><path d=" M 240 440 L 272 440 L 272 488 L 240 488 L 240 440 Z " fill="rgb(235,251,255)"/><g><path d=" M 184 240 L 200 240 L 200 264 L 184 264 L 184 240 Z " fill="rgb(103,211,249)"/><path d=" M 216 240 L 232 240 L 232 264 L 216 264 L 216 240 Z " fill="rgb(103,211,249)"/><path d=" M 248 240 L 264 240 L 264 264 L 248 264 L 248 240 Z " fill="rgb(103,211,249)"/><path d=" M 280 240 L 296 240 L 296 264 L 280 264 L 280 240 Z " fill="rgb(103,211,249)"/><path d=" M 280 96 L 296 96 L 296 120 L 280 120 L 280 96 Z " fill="rgb(103,211,249)"/><path d=" M 312 96 L 328 96 L 328 120 L 312 120 L 312 96 Z " fill="rgb(103,211,249)"/><path d=" M 344 96 L 360 96 L 360 120 L 344 120 L 344 96 Z " fill="rgb(103,211,249)"/><path d=" M 376 96 L 392 96 L 392 120 L 376 120 L 376 96 Z " fill="rgb(103,211,249)"/><path d=" M 280 136 L 296 136 L 296 160 L 280 160 L 280 136 Z " fill="rgb(103,211,249)"/><path d=" M 312 136 L 328 136 L 328 160 L 312 160 L 312 136 Z " fill="rgb(103,211,249)"/><path d=" M 344 136 L 360 136 L 360 160 L 344 160 L 344 136 Z " fill="rgb(103,211,249)"/><path d=" M 376 136 L 392 136 L 392 160 L 376 160 L 376 136 Z " fill="rgb(103,211,249)"/><path d=" M 376 176 L 392 176 L 392 200 L 376 200 L 376 176 Z " fill="rgb(103,211,249)"/><path d=" M 376 216 L 392 216 L 392 240 L 376 240 L 376 216 Z " fill="rgb(103,211,249)"/><path d=" M 376 256 L 392 256 L 392 280 L 376 280 L 376 256 Z " fill="rgb(103,211,249)"/><path d=" M 312 240 L 328 240 L 328 264 L 312 264 L 312 240 Z " fill="rgb(103,211,249)"/><path d=" M 184 280 L 200 280 L 200 304 L 184 304 L 184 280 Z " fill="rgb(103,211,249)"/><path d=" M 216 280 L 232 280 L 232 304 L 216 304 L 216 280 Z " fill="rgb(103,211,249)"/><path d=" M 248 280 L 264 280 L 264 304 L 248 304 L 248 280 Z " fill="rgb(103,211,249)"/><path d=" M 280 280 L 296 280 L 296 304 L 280 304 L 280 280 Z " fill="rgb(103,211,249)"/><path d=" M 312 280 L 328 280 L 328 304 L 312 304 L 312 280 Z " fill="rgb(103,211,249)"/><path d=" M 184 320 L 200 320 L 200 344 L 184 344 L 184 320 Z " fill="rgb(103,211,249)"/><path d=" M 216 320 L 232 320 L 232 344 L 216 344 L 216 320 Z " fill="rgb(103,211,249)"/><path d=" M 248 320 L 264 320 L 264 344 L 248 344 L 248 320 Z " fill="rgb(103,211,249)"/><path d=" M 280 320 L 296 320 L 296 344 L 280 344 L 280 320 Z " fill="rgb(103,211,249)"/><path d=" M 312 320 L 328 320 L 328 344 L 312 344 L 312 320 Z " fill="rgb(103,211,249)"/><path d=" M 184 360 L 200 360 L 200 384 L 184 384 L 184 360 Z " fill="rgb(103,211,249)"/><path d=" M 216 360 L 232 360 L 232 384 L 216 384 L 216 360 Z " fill="rgb(103,211,249)"/><path d=" M 88 200 L 104 200 L 104 224 L 88 224 L 88 200 Z " fill="rgb(103,211,249)"/><path d=" M 120 200 L 136 200 L 136 224 L 120 224 L 120 200 Z " fill="rgb(103,211,249)"/><path d=" M 88 160 L 104 160 L 104 184 L 88 184 L 88 160 Z " fill="rgb(103,211,249)"/><path d=" M 120 160 L 136 160 L 136 184 L 120 184 L 120 160 Z " fill="rgb(103,211,249)"/><path d=" M 88 400 L 104 400 L 104 424 L 88 424 L 88 400 Z " fill="rgb(103,211,249)"/><path d=" M 120 400 L 136 400 L 136 424 L 120 424 L 120 400 Z " fill="rgb(103,211,249)"/></g><path d=" M 104 456 L 120 456 L 120 480 L 104 480 L 104 456 Z " fill="rgb(128,128,128)"/><path d=" M 392 456 L 408 456 L 408 480 L 392 480 L 392 456 Z " fill="rgb(128,128,128)"/><path d=" M 88 240 L 104 240 L 104 264 L 88 264 L 88 240 Z " fill="rgb(103,211,249)"/><path d=" M 120 240 L 136 240 L 136 264 L 120 264 L 120 240 Z " fill="rgb(103,211,249)"/><path d=" M 88 280 L 104 280 L 104 304 L 88 304 L 88 280 Z " fill="rgb(103,211,249)"/><path d=" M 120 280 L 136 280 L 136 304 L 120 304 L 120 280 Z " fill="rgb(103,211,249)"/><path d=" M 88 320 L 104 320 L 104 344 L 88 344 L 88 320 Z " fill="rgb(103,211,249)"/><path d=" M 120 320 L 136 320 L 136 344 L 120 344 L 120 320 Z " fill="rgb(103,211,249)"/><path d=" M 88 360 L 104 360 L 104 384 L 88 384 L 88 360 Z " fill="rgb(103,211,249)"/><path d=" M 120 360 L 136 360 L 136 384 L 120 384 L 120 360 Z " fill="rgb(103,211,249)"/><path d=" M 248 360 L 264 360 L 264 384 L 248 384 L 248 360 Z " fill="rgb(103,211,249)"/><path d=" M 280 360 L 296 360 L 296 384 L 280 384 L 280 360 Z " fill="rgb(103,211,249)"/><path d=" M 312 360 L 328 360 L 328 384 L 312 384 L 312 360 Z " fill="rgb(103,211,249)"/><path d=" M 376 320 L 392 320 L 392 344 L 376 344 L 376 320 Z " fill="rgb(103,211,249)"/><path d=" M 408 320 L 424 320 L 424 344 L 408 344 L 408 320 Z " fill="rgb(103,211,249)"/><path d=" M 376 360 L 392 360 L 392 384 L 376 384 L 376 360 Z " fill="rgb(103,211,249)"/><path d=" M 408 360 L 424 360 L 424 384 L 408 384 L 408 360 Z " fill="rgb(103,211,249)"/><path d=" M 376 400 L 392 400 L 392 424 L 376 424 L 376 400 Z " fill="rgb(103,211,249)"/><path d=" M 408 400 L 424 400 L 424 424 L 408 424 L 408 400 Z " fill="rgb(103,211,249)"/><path d=" M 328 16 L 344 16 L 344 56 L 328 56 L 328 16 Z " fill="rgb(128,128,128)"/><path d=" M 360 32 L 376 32 L 376 56 L 360 56 L 360 32 Z " fill="rgb(128,128,128)"/><path d=" M 88 112 L 104 112 L 104 136 L 88 136 L 88 112 Z " fill="rgb(128,128,128)"/><path d=" M 120 96 L 136 96 L 136 136 L 120 136 L 120 96 Z " fill="rgb(128,128,128)"/><path d=" M 144 136 L 160 136 L 160 488 L 144 488 L 144 136 Z " fill="rgb(3,140,174)"/><path d=" M 16 480 L 496 480 L 496 496 L 16 496 L 16 480 Z " fill="rgb(77,77,77)"/><path d=" M 352 280 L 368 280 L 368 480 L 352 480 L 352 280 Z " fill="rgb(211,224,227)"/><path d=" M 256 56 L 272 56 L 272 184 L 256 184 L 256 56 Z " fill="rgb(106,200,113)"/></g><g><path d=" M 200.512 176 L 215.736 176 L 215.736 192 L 200.512 192 L 200.512 176 Z " fill="rgb(0,0,0)"/><path d=" M 184 240 L 200 240 L 200 264 L 184 264 L 184 240 Z " fill="rgb(0,0,0)"/><path d=" M 216 240 L 232 240 L 232 264 L 216 264 L 216 240 Z " fill="rgb(0,0,0)"/><path d=" M 248 240 L 264 240 L 264 264 L 248 264 L 248 240 Z " fill="rgb(0,0,0)"/><path d=" M 280 240 L 296 240 L 296 264 L 280 264 L 280 240 Z " fill="rgb(0,0,0)"/><path d=" M 280 96 L 296 96 L 296 120 L 280 120 L 280 96 Z " fill="rgb(0,0,0)"/><path d=" M 312 96 L 328 96 L 328 120 L 312 120 L 312 96 Z " fill="rgb(0,0,0)"/><path d=" M 344 96 L 360 96 L 360 120 L 344 120 L 344 96 Z " fill="rgb(0,0,0)"/><path d=" M 376 96 L 392 96 L 392 120 L 376 120 L 376 96 Z " fill="rgb(0,0,0)"/><path d=" M 280 136 L 296 136 L 296 160 L 280 160 L 280 136 Z " fill="rgb(0,0,0)"/><path d=" M 312 136 L 328 136 L 328 160 L 312 160 L 312 136 Z " fill="rgb(0,0,0)"/><path d=" M 344 136 L 360 136 L 360 160 L 344 160 L 344 136 Z " fill="rgb(0,0,0)"/><path d=" M 376 136 L 392 136 L 392 160 L 376 160 L 376 136 Z " fill="rgb(0,0,0)"/><path d=" M 376 176 L 392 176 L 392 200 L 376 200 L 376 176 Z " fill="rgb(0,0,0)"/><path d=" M 376 216 L 392 216 L 392 240 L 376 240 L 376 216 Z " fill="rgb(0,0,0)"/><path d=" M 312 240 L 328 240 L 328 264 L 312 264 L 312 240 Z " fill="rgb(0,0,0)"/><path d=" M 184 280 L 200 280 L 200 304 L 184 304 L 184 280 Z " fill="rgb(0,0,0)"/><path d=" M 216 280 L 232 280 L 232 304 L 216 304 L 216 280 Z " fill="rgb(0,0,0)"/><path d=" M 248 280 L 264 280 L 264 304 L 248 304 L 248 280 Z " fill="rgb(0,0,0)"/><path d=" M 280 280 L 296 280 L 296 304 L 280 304 L 280 280 Z " fill="rgb(0,0,0)"/><path d=" M 312 280 L 328 280 L 328 304 L 312 304 L 312 280 Z " fill="rgb(0,0,0)"/><path d=" M 184 320 L 200 320 L 200 344 L 184 344 L 184 320 Z " fill="rgb(0,0,0)"/><path d=" M 216 320 L 232 320 L 232 344 L 216 344 L 216 320 Z " fill="rgb(0,0,0)"/><path d=" M 248 320 L 264 320 L 264 344 L 248 344 L 248 320 Z " fill="rgb(0,0,0)"/><path d=" M 280 320 L 296 320 L 296 344 L 280 344 L 280 320 Z " fill="rgb(0,0,0)"/><path d=" M 312 320 L 328 320 L 328 344 L 312 344 L 312 320 Z " fill="rgb(0,0,0)"/><path d=" M 184 360 L 200 360 L 200 384 L 184 384 L 184 360 Z " fill="rgb(0,0,0)"/><path d=" M 216 360 L 232 360 L 232 384 L 216 384 L 216 360 Z " fill="rgb(0,0,0)"/><path d=" M 88 200 L 104 200 L 104 224 L 88 224 L 88 200 Z " fill="rgb(0,0,0)"/><path d=" M 120 200 L 136 200 L 136 224 L 120 224 L 120 200 Z " fill="rgb(0,0,0)"/><path d=" M 88 160 L 104 160 L 104 184 L 88 184 L 88 160 Z " fill="rgb(0,0,0)"/><path d=" M 120 160 L 136 160 L 136 184 L 120 184 L 120 160 Z " fill="rgb(0,0,0)"/><path d=" M 88 400 L 104 400 L 104 424 L 88 424 L 88 400 Z " fill="rgb(0,0,0)"/><path d=" M 120 400 L 136 400 L 136 424 L 120 424 L 120 400 Z " fill="rgb(0,0,0)"/><path d=" M 88 240 L 104 240 L 104 264 L 88 264 L 88 240 Z " fill="rgb(0,0,0)"/><path d=" M 120 240 L 136 240 L 136 264 L 120 264 L 120 240 Z " fill="rgb(0,0,0)"/><path d=" M 88 280 L 104 280 L 104 304 L 88 304 L 88 280 Z " fill="rgb(0,0,0)"/><path d=" M 120 280 L 136 280 L 136 304 L 120 304 L 120 280 Z " fill="rgb(0,0,0)"/><path d=" M 88 320 L 104 320 L 104 344 L 88 344 L 88 320 Z " fill="rgb(0,0,0)"/><path d=" M 120 320 L 136 320 L 136 344 L 120 344 L 120 320 Z " fill="rgb(0,0,0)"/><path d=" M 88 360 L 104 360 L 104 384 L 88 384 L 88 360 Z " fill="rgb(0,0,0)"/><path d=" M 120 360 L 136 360 L 136 384 L 120 384 L 120 360 Z " fill="rgb(0,0,0)"/><path d=" M 248 360 L 264 360 L 264 384 L 248 384 L 248 360 Z " fill="rgb(0,0,0)"/><path d=" M 280 360 L 296 360 L 296 384 L 280 384 L 280 360 Z " fill="rgb(0,0,0)"/><path d=" M 312 360 L 328 360 L 328 384 L 312 384 L 312 360 Z " fill="rgb(0,0,0)"/><path d=" M 376 320 L 392 320 L 392 344 L 376 344 L 376 320 Z " fill="rgb(0,0,0)"/><path d=" M 408 320 L 424 320 L 424 344 L 408 344 L 408 320 Z " fill="rgb(0,0,0)"/><path d=" M 376 360 L 392 360 L 392 384 L 376 384 L 376 360 Z " fill="rgb(0,0,0)"/><path d=" M 408 360 L 424 360 L 424 384 L 408 384 L 408 360 Z " fill="rgb(0,0,0)"/><path d=" M 376 400 L 392 400 L 392 424 L 376 424 L 376 400 Z " fill="rgb(0,0,0)"/><path d=" M 408 400 L 424 400 L 424 424 L 408 424 L 408 400 Z " fill="rgb(0,0,0)"/><path d=" M 456 280 C 456 275.582 452.418 272 448 272 L 424 272 L 424 56 C 424 51.582 420.418 48 416 48 L 376 48 L 376 32 L 360 32 L 360 48 L 344 48 L 344 16 L 328 16 L 328 48 L 256 48 C 251.582 48 248 51.582 248 56 L 248 176 L 231.744 176 L 231.744 192 L 344 192 L 344 480 L 280 480 L 280 440 C 280 435.582 276.418 432 272 432 L 240 432 C 235.582 432 232 435.582 232 440 L 232 480 L 168 480 L 168 192 L 184.512 192 L 184.512 176 L 168 176 L 168 136 C 168 131.582 164.418 128 160 128 L 136 128 L 136 96 L 120 96 L 120 128 L 104 128 L 104 112 L 88 112 L 88 128 L 64 128 C 59.582 128 56 131.582 56 136 L 56 480 L 16 480 L 16 496 L 496 496 L 496 480 L 456 480 L 456 280 Z  M 104 456 L 104 480 L 72 480 L 72 144 L 152 144 L 152 480 L 120 480 L 120 456 L 104 456 Z  M 264 176 L 264 64 L 408 64 L 408 272 L 392 272 L 392 256 L 376 256 L 376 272 L 360 272 L 360 184 C 360 179.582 356.418 176 352 176 L 264 176 Z  M 248 480 L 248 448 L 264 448 L 264 480 L 248 480 Z  M 408 480 L 408 456 L 392 456 L 392 480 L 360 480 L 360 288 L 440 288 L 440 480 L 408 480 Z " fill="rgb(0,0,0)"/></g></g></svg>