<?xml version="1.0" encoding="UTF-8" standalone="no"?><!-- Generator: Gravit.io --><svg xmlns="http://www.w3.org/2000/svg" xmlns:xlink="http://www.w3.org/1999/xlink" style="isolation:isolate" viewBox="0 0 512 512" width="512pt" height="512pt"><defs><clipPath id="_clipPath_fUglR00cYRykyu8b7XJF8136hjlqdBjG"><rect width="512" height="512"/></clipPath></defs><g clip-path="url(#_clipPath_fUglR00cYRykyu8b7XJF8136hjlqdBjG)"><rect width="512" height="512" style="fill:rgb(235,251,255)"/><path d=" M 511.923 265.794 L 511.998 344.177 C 495.868 316.437 453.78 314.674 437.651 342.414 L 437.197 343.195 C 421.012 371.029 380.81 371.034 364.618 343.204 L 364.285 342.632 C 348.059 314.743 307.745 314.823 291.63 342.776 C 275.512 370.733 235.191 370.808 218.97 342.911 L 218.681 342.414 C 202.494 314.576 162.285 314.576 146.098 342.414 L 145.644 343.195 C 129.459 371.029 89.257 371.034 73.065 343.204 L 72.578 342.366 C 56.443 314.635 16.126 314.64 -0.001 342.376 L -0.001 266.389 C -0.001 230.103 45.706 213.134 68.691 241.212 C 70.102 242.935 71.403 244.807 72.578 246.824 L 73.065 247.662 C 89.257 275.492 129.459 275.487 145.644 247.653 L 146.098 246.872 C 162.285 219.034 202.494 219.034 218.681 246.872 L 218.97 247.369 C 235.191 275.266 275.513 275.192 291.63 247.234 C 307.745 219.282 348.059 219.202 364.285 247.09 L 364.618 247.662 C 380.81 275.492 421.012 275.487 437.197 247.653 L 437.651 246.872 C 453.781 219.132 495.841 238.05 511.97 265.79" fill="rgb(93,227,255)"/><path d=" M 437.651 246.871 L 437.197 247.652 C 421.009 275.489 380.8 275.489 364.613 247.652 L 364.287 247.091 C 348.118 219.301 307.689 219.38 291.631 247.234 C 283.686 261.015 269.777 267.985 255.79 268.157 L 255.79 363.7 C 269.776 363.528 283.686 356.557 291.631 342.777 C 307.689 314.923 348.118 314.843 364.287 342.634 L 364.619 343.205 C 380.804 371.038 421.007 371.038 437.193 343.205 L 437.653 342.415 C 453.783 314.675 495.87 316.438 512 344.178 L 511.972 265.79 C 511.965 245.006 495.657 227.507 474.882 226.888 C 460.31 226.454 445.73 232.978 437.651 246.871 L 437.651 246.871 Z " fill="rgb(12,201,255)"/><path d=" M 499.43 512 L 12.568 512 C 5.626 512 -0.001 506.373 -0.001 499.432 L -0.001 405.805 L 511.999 405.805 L 511.999 499.432 C 511.999 506.373 506.372 512 499.43 512 L 499.43 512 Z " fill="rgb(0,130,255)"/><path d=" M 511.964 343.052 L 511.998 438.719 C 495.868 410.979 453.78 409.216 437.651 436.956 L 437.197 437.737 C 421.07 465.473 380.753 465.478 364.618 437.746 L 364.286 437.176 C 348.117 409.385 307.688 409.464 291.63 437.318 C 275.569 465.176 235.133 465.25 218.969 437.451 L 218.681 436.956 C 202.551 409.216 162.228 409.216 146.098 436.956 L 145.644 437.737 C 129.517 465.473 89.2 465.478 73.065 437.746 L 72.578 436.909 C 56.443 409.176 16.126 409.182 -0.001 436.917 L -0.001 341.374 C 16.126 313.639 56.443 313.634 72.578 341.365 L 73.065 342.204 C 89.2 369.935 129.516 369.93 145.644 342.195 L 146.098 341.413 C 162.228 313.674 202.551 313.674 218.681 341.413 L 218.969 341.908 C 235.133 369.707 275.57 369.633 291.63 341.775 C 307.688 313.922 348.117 313.843 364.286 341.633 L 364.618 342.205 C 380.753 369.936 421.069 369.931 437.197 342.196 L 437.651 341.414 C 453.781 313.674 495.834 315.312 511.964 343.052" fill="rgb(12,201,255)"/><path d=" M 255.79 512 L 499.43 512 C 506.372 512 511.999 506.373 511.999 499.431 L 511.999 405.804 L 255.79 405.804 L 255.79 512 Z " fill="rgb(0,35,71)"/><path d=" M 437.651 341.413 L 437.197 342.195 C 421.069 369.93 380.753 369.935 364.618 342.204 L 364.286 341.632 C 348.117 313.842 307.688 313.921 291.63 341.775 C 283.685 355.556 269.776 362.527 255.789 362.699 L 255.789 458.241 C 269.775 458.069 283.685 451.098 291.63 437.318 C 307.688 409.464 348.117 409.384 364.286 437.175 L 364.618 437.746 C 380.753 465.478 421.07 465.473 437.197 437.737 L 437.651 436.956 C 453.781 409.216 495.868 410.979 511.998 438.719 L 511.964 343.052 C 495.834 315.312 453.781 313.674 437.651 341.413 L 437.651 341.413 Z " fill="rgb(0,161,255)"/></g></svg>