<?xml version="1.0" encoding="UTF-8" standalone="no"?><!-- Generator: Gravit.io --><svg xmlns="http://www.w3.org/2000/svg" xmlns:xlink="http://www.w3.org/1999/xlink" style="isolation:isolate" viewBox="0 0 512 512" width="512pt" height="512pt"><defs><clipPath id="_clipPath_FdM2AxvDc3OCcanzMY7YG7NRzLsLswZK"><rect width="512" height="512"/></clipPath></defs><g clip-path="url(#_clipPath_FdM2AxvDc3OCcanzMY7YG7NRzLsLswZK)"><rect x="0" y="0" width="512" height="512" transform="matrix(1,0,0,1,0,0)" fill="rgb(235,251,255)"/><g><path d=" M 238.816 88.244 L 238.816 205.988 C 238.879 268.547 265.512 328.135 312.08 369.908 C 337.892 393.011 376.637 394.027 403.624 372.308 L 406.08 370.34 C 457.917 328.603 488.042 265.619 488 199.068 L 488 88.244 C 407.146 61.164 319.67 61.164 238.816 88.244 L 238.816 88.244 Z " fill="rgb(122,229,130)"/><path d=" M 440 75.516 L 440 199.068 C 440.039 265.616 409.915 328.596 358.08 370.332 L 355.624 372.3 C 349.525 377.2 342.656 381.055 335.296 383.708 C 358.498 392.133 384.417 387.806 403.624 372.3 L 406.08 370.332 C 457.915 328.596 488.039 265.616 488 199.068 L 488 88.244 C 472.284 82.996 456.252 78.744 440 75.516 L 440 75.516 Z " fill="rgb(127,238,134)"/><g><path d=" M 301.112 253.34 C 340.306 273.043 386.51 273.043 425.704 253.34 L 418.072 276.348 C 410.288 299.946 388.257 315.9 363.408 315.932 C 338.559 315.9 316.528 299.946 308.744 276.348 L 301.112 253.34 Z " fill="rgb(0,35,71)"/><path d=" M 280.336 190.132 C 275.918 190.124 272.343 186.536 272.351 182.117 C 272.354 180.551 272.816 179.021 273.68 177.716 C 287.969 156.157 314.29 145.937 339.384 152.204 L 344.584 153.508 C 348.862 154.612 351.435 158.975 350.331 163.253 C 349.238 167.488 344.946 170.06 340.696 169.028 L 335.488 167.724 C 316.972 163.122 297.562 170.661 287.008 186.556 C 285.524 188.791 283.019 190.134 280.336 190.132 L 280.336 190.132 Z " fill="rgb(222,76,60)"/><path d=" M 456.856 193.044 C 454.172 193.044 451.666 191.698 450.184 189.46 C 439.634 173.57 420.231 166.031 401.72 170.628 L 396.496 171.932 C 392.178 172.869 387.919 170.128 386.982 165.81 C 386.087 161.686 388.55 157.576 392.608 156.42 L 397.824 155.108 C 422.912 148.858 449.219 159.075 463.512 180.62 C 465.955 184.301 464.952 189.266 461.271 191.709 C 459.962 192.578 458.427 193.042 456.856 193.044 L 456.856 193.044 Z " fill="rgb(222,76,60)"/></g></g><g><path d=" M 238.816 154.276 C 167.702 171.108 93.3 167.736 24 144.54 L 24 261.988 C 23.969 324.567 50.618 384.191 97.264 425.908 C 123.076 449.011 161.821 450.027 188.808 428.308 L 191.264 426.34 C 227.728 396.973 253.838 356.708 265.776 311.436 C 248.104 279.104 238.834 242.851 238.816 206.004 L 238.816 154.276 Z " fill="rgb(0,35,71)"/><path d=" M 238.816 205.988 L 238.816 154.276 C 228.608 156.676 218.328 158.636 208 160.228 L 208 192.652 C 208.001 236.966 217.712 280.742 236.448 320.9 L 250.712 351.46 C 257.02 338.633 262.065 325.224 265.776 311.42 C 248.104 279.087 238.834 242.835 238.816 205.988 L 238.816 205.988 Z " fill="rgb(0,43,85)"/><g><path d=" M 56 267.228 C 51.582 267.228 48 263.646 48 259.228 C 48 254.81 51.582 251.228 56 251.228 C 72.818 251.222 88.508 242.771 97.768 228.732 L 101.24 223.476 C 103.683 219.791 108.651 218.785 112.336 221.228 C 116.021 223.671 117.027 228.639 114.584 232.324 L 111.104 237.58 C 98.882 256.091 78.182 267.228 56 267.228 L 56 267.228 Z " fill="rgb(53,112,171)"/><path d=" M 211.744 267.228 C 189.573 267.242 168.876 256.123 156.648 237.628 L 153.16 232.372 C 150.717 228.689 151.721 223.723 155.404 221.28 C 159.087 218.837 164.053 219.841 166.496 223.524 L 169.984 228.78 C 179.246 242.808 194.934 251.247 211.744 251.244 C 216.162 251.244 219.744 254.826 219.744 259.244 C 219.744 263.662 216.162 267.244 211.744 267.244 L 211.744 267.228 Z " fill="rgb(53,112,171)"/><path d=" M 94.128 373.532 C 99.665 381.907 110.588 384.821 119.56 380.316 C 135.813 372.148 154.971 372.148 171.224 380.316 C 180.196 384.821 191.119 381.907 196.656 373.532 C 202.769 364.357 200.303 351.965 191.144 345.828 C 163.466 327.269 127.318 327.269 99.64 345.828 C 90.481 351.965 88.015 364.357 94.128 373.532 L 94.128 373.532 Z " fill="rgb(0,165,207)"/></g></g><path d=" M 211.928 259.804 L 196.304 296.26 C 192.619 304.896 196.632 314.883 205.268 318.568 C 207.374 319.466 209.639 319.93 211.928 319.932 C 221.317 319.931 228.927 312.319 228.926 302.93 C 228.926 300.629 228.458 298.351 227.552 296.236 L 211.928 259.804 Z " fill="rgb(0,165,207)"/><path d=" M 335.488 167.724 L 340.696 169.028 C 344.989 170.071 349.315 167.436 350.359 163.143 C 351.392 158.893 348.82 154.601 344.584 153.508 L 339.384 152.204 C 314.29 145.937 287.969 156.157 273.68 177.716 C 271.347 181.468 272.496 186.401 276.248 188.734 C 279.846 190.972 284.564 190.016 287.008 186.556 C 297.562 170.661 316.972 163.122 335.488 167.724 L 335.488 167.724 Z " fill="rgb(0,0,0)"/><path d=" M 422.112 246.188 C 385.156 264.66 341.66 264.66 304.704 246.188 C 300.761 244.195 295.948 245.776 293.955 249.719 C 292.993 251.621 292.831 253.829 293.503 255.852 L 301.143 278.86 C 312.436 313.243 349.464 331.961 383.847 320.668 C 403.636 314.168 419.156 298.648 425.655 278.86 L 433.287 255.852 C 434.681 251.659 432.412 247.131 428.22 245.737 C 426.197 245.064 423.99 245.227 422.087 246.188 L 422.112 246.188 Z  M 410.48 273.828 C 401.959 299.825 373.977 313.992 347.979 305.471 C 332.996 300.56 321.246 288.81 316.336 273.828 L 314.28 267.628 C 346.072 278.828 380.736 278.828 412.528 267.628 L 410.48 273.828 Z " fill="rgb(0,0,0)"/><path d=" M 396.496 171.932 L 401.72 170.628 C 420.231 166.031 439.634 173.57 450.184 189.46 C 452.517 193.212 457.451 194.362 461.202 192.028 C 464.954 189.695 466.104 184.761 463.77 181.01 C 463.688 180.878 463.601 180.748 463.511 180.62 C 449.211 159.084 422.906 148.877 397.823 155.132 L 392.607 156.444 C 388.397 157.786 386.073 162.287 387.415 166.496 C 388.641 170.337 392.532 172.667 396.496 171.932 L 396.496 171.932 Z " fill="rgb(0,0,0)"/><path d=" M 490.536 80.66 C 408.005 53.204 318.803 53.204 236.272 80.66 C 233.013 81.753 230.816 84.806 230.816 88.244 L 230.816 147.828 C 162.993 162.752 92.392 158.995 26.536 136.956 C 22.346 135.555 17.813 137.817 16.413 142.007 C 16.14 142.824 16 143.679 16 144.54 L 16 261.988 C 15.999 326.84 43.615 388.623 91.936 431.876 C 120.674 457.581 163.797 458.702 193.832 434.524 L 196.28 432.556 C 229.317 406.092 254.229 370.855 268.16 330.884 C 278.989 347.513 291.965 362.641 306.752 375.876 C 335.488 401.58 378.608 402.701 408.64 378.524 L 411.088 376.556 C 464.945 333.412 496.203 268.075 496 199.068 L 496 88.244 C 495.999 84.804 493.798 81.75 490.536 80.66 L 490.536 80.66 Z  M 186.248 420.1 L 183.848 422.068 C 159.894 441.351 125.499 440.447 102.592 419.932 C 57.668 379.721 31.995 322.28 32 261.988 L 32 155.492 C 96.473 175.126 164.861 178.153 230.816 164.292 L 230.816 206.02 C 230.816 210.697 230.963 215.375 231.256 220.052 C 231.352 221.604 231.56 223.14 231.688 224.692 C 231.944 227.796 232.184 230.908 232.568 234.004 C 232.808 235.884 233.152 237.74 233.432 239.604 C 233.848 242.356 234.232 245.116 234.744 247.852 C 235.112 249.836 235.6 251.804 236.024 253.78 C 236.584 256.372 237.104 258.972 237.752 261.54 C 238.272 263.588 238.896 265.612 239.464 267.644 C 240.16 270.108 240.824 272.58 241.6 275.02 C 242.256 277.084 243.008 279.116 243.72 281.156 C 244.52 283.556 245.36 285.916 246.272 288.268 C 247.072 290.316 247.944 292.324 248.792 294.34 C 249.76 296.644 250.704 298.948 251.744 301.212 C 252.672 303.236 253.688 305.212 254.68 307.22 C 255.536 308.948 256.28 310.708 257.216 312.42 C 245.449 354.873 220.62 392.546 186.248 420.1 L 186.248 420.1 Z  M 480 199.068 C 480.183 263.227 451.127 323.974 401.064 364.1 L 398.616 366.068 C 374.672 385.327 340.306 384.423 317.408 363.932 C 299.42 347.842 284.331 328.781 272.8 307.58 C 260.077 284.248 251.828 258.743 248.48 232.38 C 247.373 223.623 246.818 214.806 246.816 205.98 L 246.816 94.052 C 322.694 70.068 404.122 70.068 480 94.052 L 480 199.068 Z " fill="rgb(0,0,0)"/><path d=" M 111.104 237.612 L 114.584 232.356 C 117.027 228.671 116.021 223.703 112.336 221.26 C 108.651 218.817 103.683 219.823 101.24 223.508 L 97.768 228.764 C 88.501 242.791 72.812 251.229 56 251.228 C 51.582 251.228 48 254.81 48 259.228 C 48 263.646 51.582 267.228 56 267.228 C 78.176 267.235 98.874 256.111 111.104 237.612 Z " fill="rgb(0,0,0)"/><path d=" M 195.592 339.204 C 165.243 318.764 125.533 318.764 95.184 339.204 C 82.349 347.829 78.936 365.226 87.561 378.061 C 92.743 385.773 101.413 390.411 110.704 390.444 C 115.03 390.442 119.296 389.428 123.16 387.484 C 137.161 380.5 153.631 380.5 167.632 387.484 C 181.409 394.449 198.224 388.928 205.189 375.151 C 211.595 362.48 207.485 347.02 195.632 339.204 L 195.592 339.204 Z  M 189.992 369.132 C 186.675 374.126 180.156 375.865 174.792 373.188 C 156.267 363.936 134.469 363.936 115.944 373.188 C 110.581 375.876 104.055 374.135 100.744 369.132 C 97.069 363.626 98.548 356.184 104.048 352.5 C 129.013 335.69 161.675 335.69 186.64 352.5 C 192.157 356.168 193.657 363.613 189.992 369.132 L 189.992 369.132 Z " fill="rgb(0,0,0)"/><path d=" M 234.904 293.108 L 219.28 256.66 L 219.2 256.524 C 218.084 253.36 215.099 251.24 211.744 251.228 C 194.934 251.231 179.246 242.792 169.984 228.764 L 166.496 223.508 C 164.053 219.825 159.087 218.821 155.404 221.264 C 151.721 223.707 150.717 228.673 153.16 232.356 L 156.648 237.612 C 166.707 252.769 182.58 263.098 200.512 266.156 L 188.952 293.108 C 183.51 305.797 189.385 320.496 202.074 325.938 C 214.763 331.38 229.462 325.505 234.904 312.816 C 237.603 306.524 237.603 299.4 234.904 293.108 L 234.904 293.108 Z  M 219.44 307.932 C 216.473 312.079 210.706 313.035 206.56 310.068 C 205.736 309.478 205.014 308.757 204.424 307.932 C 202.722 305.423 202.42 302.218 203.624 299.436 L 211.896 280.132 L 220.168 299.436 C 221.398 302.206 221.123 305.412 219.44 307.932 L 219.44 307.932 Z " fill="rgb(0,0,0)"/></g></svg>