<?xml version="1.0" encoding="UTF-8" standalone="no"?><!-- Generator: Gravit.io --><svg xmlns="http://www.w3.org/2000/svg" xmlns:xlink="http://www.w3.org/1999/xlink" style="isolation:isolate" viewBox="0 0 512 512" width="512pt" height="512pt"><defs><clipPath id="_clipPath_EOcp07I4nqLfzLGvIpsMm2TPOmivNdZ0"><rect width="512" height="512"/></clipPath></defs><g clip-path="url(#_clipPath_EOcp07I4nqLfzLGvIpsMm2TPOmivNdZ0)"><rect width="512" height="512" style="fill:rgb(235,251,255)"/><rect x="61.131" y="326.576" width="121.156" height="53.324" transform="matrix(1,0,0,1,0,0)" fill="rgb(122,229,130)"/><rect x="335.594" y="326.576" width="121.156" height="53.324" transform="matrix(1,0,0,1,0,0)" fill="rgb(122,229,130)"/><g><g><path d=" M 61.131 171.183 L 61.131 325.396 L 180.056 325.396 L 180.056 307.752 C 180.056 298.048 172.116 290.108 162.412 290.108 L 96.419 290.108 L 96.419 188.827 C 96.419 179.123 88.48 171.183 78.775 171.183 L 61.131 171.183 Z " fill-rule="evenodd" fill="rgb(122,229,130)"/><path d=" M 349.588 290.107 C 339.884 290.107 331.944 298.047 331.944 307.751 L 331.944 325.395 L 450.869 325.395 L 450.869 171.183 L 433.225 171.183 C 423.52 171.183 415.581 179.123 415.581 188.827 L 415.581 290.107 L 349.588 290.107 Z " fill-rule="evenodd" fill="rgb(122,229,130)"/><path d=" M 238.356 266.583 L 238.356 395.195 C 238.356 404.899 230.416 412.839 220.712 412.839 L 291.288 412.839 C 281.584 412.839 273.644 404.899 273.644 395.195 L 273.644 266.583 C 273.644 256.878 281.584 248.938 291.288 248.938 L 220.712 248.938 C 230.416 248.938 238.356 256.878 238.356 266.583 Z " fill-rule="evenodd" fill="rgb(0,61,121)"/><path d=" M 131.707 213.65 L 131.707 248.938 L 380.292 248.938 L 380.292 213.65 C 297.431 213.65 214.569 213.65 131.707 213.65 L 131.707 213.65 Z " fill-rule="evenodd" fill="rgb(0,61,121)"/><path d=" M 176.393 190.125 L 176.393 213.65 L 334.798 213.65 L 334.798 190.125 C 281.996 190.125 229.195 190.125 176.393 190.125 L 176.393 190.125 Z " fill-rule="evenodd" fill="rgb(0,165,207)"/><path d=" M 255.595 122.686 C 218.349 122.686 188.156 152.88 188.156 190.125 L 323.035 190.125 C 323.035 152.88 292.842 122.686 255.595 122.686 L 255.595 122.686 Z " fill-rule="evenodd" fill="rgb(0,165,207)"/><path d=" M 61.131 171.183 L 78.775 171.183 L 78.775 325.396 L 61.131 325.396 L 61.131 171.183 Z " fill-rule="evenodd" fill="rgb(106,195,112)"/><path d=" M 238.356 266.583 L 238.356 395.195 C 238.356 404.899 230.416 412.839 220.712 412.839 L 238.356 412.839 C 248.06 412.839 256 404.899 256 395.195 L 256 266.583 C 256 256.878 248.06 248.938 238.356 248.938 L 220.712 248.938 C 230.416 248.938 238.356 256.878 238.356 266.583 Z " fill-rule="evenodd" fill="rgb(0,35,71)"/><path d=" M 349.588 290.107 C 339.884 290.107 331.944 298.047 331.944 307.751 L 331.944 325.395 L 349.588 325.395 L 349.588 307.751 C 349.588 298.047 357.528 290.107 367.232 290.107 L 349.588 290.107 Z  M 450.869 171.183 L 433.225 171.183 C 423.52 171.183 415.581 179.123 415.581 188.827 L 415.581 290.107 L 433.225 290.107 L 433.225 188.827 C 433.225 179.123 441.164 171.183 450.869 171.183 Z " fill-rule="evenodd" fill="rgb(106,195,112)"/><path d=" M 131.707 213.65 L 149.351 213.65 L 149.351 248.938 L 131.707 248.938 L 131.707 213.65 Z " fill-rule="evenodd" fill="rgb(0,35,71)"/><path d=" M 176.393 190.125 L 194.037 190.125 L 194.037 213.65 L 176.393 213.65 L 176.393 190.125 Z " fill-rule="evenodd" fill="rgb(6,178,221)"/><path d=" M 255.595 122.686 C 218.349 122.686 188.156 152.88 188.156 190.125 L 205.8 190.125 C 205.8 155.87 231.341 127.582 264.417 123.26 C 261.53 122.883 258.586 122.686 255.595 122.686 L 255.595 122.686 Z " fill-rule="evenodd" fill="rgb(6,178,221)"/></g><g><path d=" M 287.723 169.754 C 281.671 160.23 271.816 153.915 260.685 152.429 L 262.241 140.77 C 276.824 142.716 289.73 150.981 297.65 163.446 L 287.723 169.754 Z  M 239.931 155.454 L 235.082 144.737 C 239.484 142.746 244.149 141.411 248.949 140.77 L 250.505 152.429 C 246.845 152.918 243.287 153.936 239.931 155.454 Z " fill="rgb(235,251,255)"/></g></g><g><path d=" M 326.063 418.72 L 337.825 418.72 L 337.825 384.208 L 444.987 384.208 L 444.987 418.72 L 456.75 418.72 L 456.75 319.514 L 326.063 319.514 L 326.063 418.72 Z  M 444.987 331.277 L 444.987 372.446 L 337.825 372.446 L 337.825 331.277 L 444.987 331.277 Z " fill="rgb(0,0,0)"/><path d=" M 326.063 307.752 L 337.825 307.752 C 337.825 301.266 343.102 295.989 349.588 295.989 L 433.225 295.989 L 433.225 284.227 L 421.462 284.227 L 421.462 219.533 L 409.699 219.533 L 409.699 284.227 L 349.588 284.227 C 336.616 284.226 326.063 294.779 326.063 307.752 Z " fill="rgb(0,0,0)"/><path d=" M 433.225 165.301 C 420.253 165.301 409.699 175.854 409.699 188.826 L 409.699 207.768 L 421.462 207.768 L 421.462 188.827 C 421.462 182.341 426.739 177.064 433.225 177.064 L 444.987 177.064 L 444.987 307.752 L 456.75 307.752 L 456.75 165.301 L 433.225 165.301 Z " fill="rgb(0,0,0)"/><path d=" M 67.013 177.064 L 78.775 177.064 C 85.261 177.064 90.538 182.34 90.538 188.826 L 90.538 207.768 L 102.301 207.768 L 102.301 188.827 C 102.301 175.855 91.747 165.302 78.775 165.302 L 55.25 165.302 L 55.25 307.752 L 67.013 307.752 L 67.013 177.064 Z " fill="rgb(0,0,0)"/><path d=" M 162.412 284.226 L 102.301 284.226 L 102.301 219.532 L 90.538 219.532 L 90.538 284.226 L 78.775 284.226 L 78.775 295.988 L 162.412 295.988 C 168.898 295.988 174.175 301.265 174.175 307.751 L 185.937 307.751 C 185.937 294.779 175.384 284.226 162.412 284.226 Z " fill="rgb(0,0,0)"/><path d=" M 55.25 418.72 L 67.013 418.72 L 67.013 384.208 L 174.175 384.208 L 174.175 418.72 L 185.937 418.72 L 185.937 319.514 L 55.25 319.514 L 55.25 418.72 Z  M 174.175 331.277 L 174.175 372.446 L 67.013 372.446 L 67.013 331.277 L 174.175 331.277 Z " fill="rgb(0,0,0)"/><path d=" M 279.525 395.195 L 279.525 266.583 C 279.525 260.097 284.802 254.82 291.288 254.82 L 386.174 254.82 L 386.174 207.769 L 261.881 207.769 L 261.881 219.532 L 374.411 219.532 L 374.411 243.057 L 137.588 243.057 L 137.588 219.532 L 250.119 219.532 L 250.119 207.769 L 125.825 207.769 L 125.825 254.82 L 220.712 254.82 C 227.198 254.82 232.475 260.097 232.475 266.583 L 232.475 395.195 C 232.475 401.681 227.198 406.958 220.712 406.958 L 197.187 406.958 L 197.187 418.72 L 220.712 418.72 L 291.288 418.72 L 314.813 418.72 L 314.813 406.958 L 291.288 406.958 C 284.802 406.958 279.525 401.681 279.525 395.195 Z  M 241.072 254.82 L 270.928 254.82 C 268.919 258.283 267.763 262.299 267.763 266.583 L 267.763 395.195 C 267.763 399.478 268.919 403.495 270.928 406.958 L 241.072 406.958 C 243.081 403.495 244.237 399.478 244.237 395.195 L 244.237 266.583 C 244.237 262.299 243.081 258.283 241.072 254.82 L 241.072 254.82 Z " fill="rgb(0,0,0)"/><path d=" M 346.559 184.244 L 328.68 184.244 C 325.829 148.495 297.226 119.892 261.477 117.041 L 261.477 105.042 L 273.239 105.042 L 273.239 93.28 L 237.951 93.28 L 237.951 105.042 L 249.714 105.042 L 249.714 117.042 C 230.913 118.558 213.298 127.298 200.686 141.542 L 209.493 149.339 C 221.181 136.138 237.984 128.567 255.595 128.567 C 287.554 128.567 313.894 153.05 316.865 184.244 L 194.323 184.244 C 195.212 174.93 198.198 165.942 203.102 157.959 L 193.08 151.801 C 187.038 161.637 183.439 172.751 182.519 184.244 L 164.631 184.244 L 164.631 196.006 L 346.559 196.006 L 346.559 184.244 Z " fill="rgb(0,0,0)"/></g></g></svg>