<?xml version="1.0" encoding="UTF-8" standalone="no"?><!-- Generator: Gravit.io --><svg xmlns="http://www.w3.org/2000/svg" xmlns:xlink="http://www.w3.org/1999/xlink" style="isolation:isolate" viewBox="0 0 512.002 512.002" width="512.002pt" height="512.002pt"><defs><clipPath id="_clipPath_OodePkf2TRH96WeElrIJLhOXQUHjF2GN"><rect width="512.002" height="512.002"/></clipPath></defs><g clip-path="url(#_clipPath_OodePkf2TRH96WeElrIJLhOXQUHjF2GN)"><path d=" M 339.154 95.644 L 339.154 95.645 L 173.486 38.082 L 173.486 416.213 L 339.154 473.775 L 341.154 473.08 L 341.154 94.949 L 339.154 95.644 Z " fill="rgb(122,229,130)"/><path d=" M 193.488 45.031 L 173.486 38.082 L 173.486 416.213 L 193.488 423.162 L 193.488 45.031 Z " fill="rgb(96,179,102)"/><path d=" M 16.829 92.514 C 11.436 94.387 7.82 99.47 7.82 105.181 L 7.82 458.767 C 7.82 466.108 15.061 471.26 21.997 468.849 L 173.486 416.213 L 173.486 38.082 L 16.829 92.514 L 16.829 92.514 Z " fill="rgb(122,229,130)"/><path d=" M 27.715 88.732 L 16.829 92.514 C 11.436 94.387 7.82 99.47 7.82 105.181 L 7.82 458.767 C 7.82 466.108 15.061 471.26 21.997 468.849 L 27.714 466.863 C 27.715 466.863 27.715 88.732 27.715 88.732 Z " fill="rgb(96,179,102)"/><path d=" M 493.572 41.99 L 339.154 95.644 L 339.154 473.775 L 496.351 419.156 C 501.422 417.394 504.822 412.615 504.822 407.246 L 504.822 49.99 C 504.82 44.164 499.074 40.078 493.572 41.99 Z " fill="rgb(122,229,130)"/><path d=" M 359.155 88.694 L 339.154 95.644 L 339.154 473.775 L 359.155 466.826 L 359.155 88.694 Z " fill="rgb(96,179,102)"/><circle vector-effect="non-scaling-stroke" cx="90.655" cy="217.554" r="32.525000000000006" fill="rgb(0,165,207)"/><path d=" M 78.13 217.554 C 78.13 203.081 87.586 190.822 100.654 186.602 C 97.503 185.584 94.144 185.029 90.653 185.029 C 72.69 185.029 58.128 199.591 58.128 217.554 C 58.128 235.517 72.69 250.079 90.653 250.079 C 94.143 250.079 97.502 249.523 100.654 248.506 C 87.585 244.286 78.13 232.027 78.13 217.554 Z " fill="rgb(0,185,232)"/><path d=" M 82.833 256.931 L 82.833 284.764 L 80.271 284.764 C 76.128 284.764 72.771 288.121 72.771 292.264 C 72.771 296.407 76.128 299.764 80.271 299.764 L 100.394 299.764 C 104.537 299.764 107.894 296.407 107.894 292.264 C 107.894 288.121 104.537 284.764 100.394 284.764 L 97.833 284.764 L 97.833 256.931 C 116.329 253.409 130.357 237.127 130.357 217.622 C 130.357 195.552 112.402 177.597 90.333 177.597 C 68.263 177.597 50.308 195.552 50.308 217.622 C 50.308 237.127 64.337 253.409 82.833 256.931 Z  M 90.333 192.596 C 104.132 192.596 115.357 203.823 115.357 217.621 C 115.357 231.419 104.131 242.645 90.333 242.645 C 76.535 242.645 65.308 231.419 65.308 217.621 C 65.308 203.823 76.535 192.596 90.333 192.596 Z " fill="rgb(0,0,0)"/><path d=" M 448.75 259.312 C 445.82 256.384 441.072 256.384 438.142 259.312 L 421.666 275.788 L 405.19 259.312 C 402.26 256.384 397.512 256.384 394.582 259.312 C 391.653 262.242 391.653 266.99 394.582 269.92 L 411.058 286.396 L 394.582 302.872 C 391.653 305.802 391.653 310.55 394.582 313.48 C 397.513 316.409 402.26 316.408 405.19 313.48 L 421.666 297.004 L 438.142 313.48 C 441.073 316.409 445.82 316.408 448.75 313.48 C 451.679 310.55 451.679 305.802 448.75 302.872 L 432.274 286.396 L 448.75 269.92 C 451.678 266.991 451.678 262.243 448.75 259.312 Z " fill="rgb(0,0,0)"/><path d=" M 504.5 219.07 C 508.643 219.07 512 215.713 512 211.57 L 512 50.057 C 512 39.091 501.159 31.372 490.79 34.972 L 338.832 87.77 L 175.629 31.065 C 174.047 30.517 172.201 30.546 170.705 31.065 L 14.047 85.496 L 14.047 85.497 C 5.645 88.416 0 96.355 0 105.248 L 0 458.833 C 0 471.268 12.298 480.112 24.139 476 L 173.167 424.22 L 231.036 444.328 C 234.954 445.689 239.223 443.617 240.584 439.705 C 241.943 435.792 239.873 431.517 235.961 430.157 L 180.669 410.945 L 180.669 329.721 C 216.361 329.49 243.351 311.304 256.31 273.605 C 267.839 240.062 295.752 218.387 331.336 227.015 L 331.336 463.295 L 269.31 441.744 C 265.394 440.39 261.124 442.455 259.762 446.367 C 258.403 450.28 260.473 454.555 264.385 455.915 L 336.373 480.928 C 336.404 480.939 336.437 480.942 336.468 480.952 C 338.061 481.482 339.703 481.45 341.199 480.953 C 341.231 480.942 341.264 480.939 341.297 480.928 L 498.494 426.31 C 506.573 423.502 512.003 415.869 512.003 407.315 L 512.003 246.572 C 512.003 242.429 508.646 239.072 504.503 239.072 C 500.36 239.072 497.003 242.429 497.003 246.572 L 497.003 407.314 C 497.003 409.487 495.624 411.425 493.571 412.138 L 346.337 463.295 L 346.337 232.274 C 354.733 236.11 363.27 241.47 371.845 248.327 C 375.078 250.914 379.799 250.39 382.387 247.155 C 384.975 243.921 384.45 239.201 381.215 236.612 C 368.742 226.635 357.061 220.086 346.338 215.989 L 346.338 101.045 L 495.717 49.143 C 495.833 49.102 496.189 48.978 496.596 49.269 C 497 49.558 497 49.934 497 50.057 L 497 211.57 C 496.999 215.712 500.356 219.07 504.5 219.07 Z  M 165.666 313.633 C 146.667 310.934 131.779 304.028 131.458 303.876 C 127.72 302.098 123.247 303.688 121.467 307.428 C 119.688 311.168 121.277 315.643 125.017 317.424 C 126.197 317.985 143.477 326.055 165.665 328.81 L 165.665 410.945 L 19.215 461.832 C 17.144 462.548 15.001 461.021 15.001 458.835 L 15.001 105.248 C 15.001 102.734 16.597 100.492 18.971 99.667 L 165.667 48.696 L 165.666 313.633 L 165.666 313.633 L 165.666 313.633 Z  M 331.333 211.634 C 289.847 203.44 255.863 228.748 242.122 268.73 C 231.991 298.203 211.963 314.506 180.668 314.694 L 180.668 48.696 L 331.333 101.046 L 331.333 211.634 L 331.333 211.634 Z " fill="rgb(0,0,0)"/></g></svg>