<?xml version="1.0" encoding="UTF-8" standalone="no"?><!-- Generator: Gravit.io --><svg xmlns="http://www.w3.org/2000/svg" xmlns:xlink="http://www.w3.org/1999/xlink" style="isolation:isolate" viewBox="0 0 512 512" width="512pt" height="512pt"><defs><clipPath id="_clipPath_oV5a1v8dhYQrne1mMNfw0iiLUoKVsIFW"><rect width="512" height="512"/></clipPath></defs><g clip-path="url(#_clipPath_oV5a1v8dhYQrne1mMNfw0iiLUoKVsIFW)"><rect x="0" y="0" width="512" height="512" transform="matrix(1,0,0,1,0,0)" fill="rgb(235,251,255)"/><g><g><circle vector-effect="non-scaling-stroke" cx="247.43147632843335" cy="309.9820867421163" r="56.49084216969611" fill="rgb(15,122,79)"/><path d=" M 303.923 309.985 C 303.923 341.18 278.627 366.475 247.432 366.475 C 234.121 366.475 221.884 361.87 212.229 354.163 C 217.297 355.659 222.658 356.457 228.213 356.457 C 259.408 356.457 284.696 331.162 284.696 299.967 C 284.696 282.082 276.384 266.132 263.417 255.787 C 286.83 262.679 303.923 284.336 303.923 309.985 L 303.923 309.985 Z " fill="rgb(12,104,66)"/></g><g><circle vector-effect="non-scaling-stroke" cx="334.56877704578085" cy="175.01585055339876" r="56.490842169696066" fill="rgb(21,143,94)"/><path d=" M 391.064 175.018 C 391.064 206.213 365.768 231.508 334.573 231.508 C 330.06 231.508 325.673 230.979 321.472 229.979 C 346.347 224.063 364.853 201.7 364.853 175.018 C 364.853 148.327 346.347 125.964 321.472 120.056 C 325.674 119.056 330.06 118.527 334.573 118.527 C 365.768 118.527 391.064 143.814 391.064 175.018 Z " fill="rgb(15,122,79)"/></g><g><circle vector-effect="non-scaling-stroke" cx="408.569357377118" cy="251.9600994489787" r="56.49084216969612" fill="rgb(21,143,94)"/><path d=" M 465.06 251.964 C 465.06 283.16 439.764 308.455 408.569 308.455 C 403.434 308.455 398.46 307.766 393.728 306.481 C 421.411 302.834 442.774 279.151 442.774 250.477 C 442.774 224.416 425.125 202.474 401.124 195.961 C 403.561 195.642 406.049 195.473 408.57 195.473 C 439.764 195.473 465.06 220.76 465.06 251.964 L 465.06 251.964 Z " fill="rgb(15,122,79)"/></g><g><path d=" M 372.309 352.321 C 347.955 352.321 328.211 332.577 328.211 308.223 L 328.211 211.778 C 328.211 187.423 347.955 167.68 372.309 167.68 C 396.663 167.68 416.407 187.423 416.407 211.778 L 416.407 308.223 C 416.407 332.577 396.663 352.321 372.309 352.321 L 372.309 352.321 Z " fill="rgb(122,229,130)"/><path d=" M 416.41 211.777 L 416.41 308.22 C 416.41 332.575 396.661 352.324 372.306 352.324 C 368.567 352.324 364.936 351.862 361.474 350.98 C 380.593 346.156 394.745 328.835 394.745 308.22 L 394.745 211.777 C 394.745 199.599 389.812 188.573 381.828 180.599 C 376.298 175.069 369.306 171.001 361.474 169.027 C 364.937 168.144 368.567 167.682 372.306 167.682 C 384.484 167.682 395.51 172.616 403.493 180.599 C 411.477 188.573 416.41 199.599 416.41 211.777 L 416.41 211.777 Z " fill="rgb(109,208,116)"/></g><g><path d=" M 147.694 241.979 C 123.34 241.979 103.596 222.236 103.596 197.881 L 103.596 136.15 C 103.596 111.796 123.34 92.052 147.694 92.052 C 172.049 92.052 191.792 111.796 191.792 136.15 L 191.792 197.881 C 191.792 222.236 172.049 241.979 147.694 241.979 Z " fill="rgb(122,229,130)"/><path d=" M 191.79 136.149 L 191.79 197.885 C 191.79 222.239 172.05 241.98 147.695 241.98 C 143.526 241.98 139.484 241.4 135.66 240.316 C 154.166 235.08 167.721 218.07 167.721 197.885 L 167.721 136.149 C 167.721 123.972 162.788 112.946 154.804 104.97 C 149.56 99.718 142.996 95.793 135.66 93.717 C 139.483 92.633 143.526 92.053 147.694 92.053 C 159.872 92.053 170.898 96.986 178.872 104.969 C 186.857 112.946 191.79 123.972 191.79 136.149 L 191.79 136.149 Z " fill="rgb(109,208,116)"/></g><g><circle vector-effect="non-scaling-stroke" cx="209.51207844443513" cy="256.2372103322624" r="66.95310632085979" fill="rgb(28,165,111)"/><path d=" M 276.468 256.233 C 276.468 293.21 246.491 323.187 209.514 323.187 C 198.899 323.187 188.865 320.716 179.949 316.313 C 211.085 310.564 234.676 283.277 234.676 250.477 C 234.676 224.113 219.439 201.314 197.295 190.397 C 201.253 189.666 205.338 189.287 209.514 189.287 C 246.491 189.287 276.468 219.264 276.468 256.233 Z " fill="rgb(21,143,94)"/></g><g><path d=" M 334.569 270.551 C 334.569 348.145 314.661 346.761 290.103 346.761 C 265.546 346.761 245.638 348.145 245.638 270.551 C 245.638 192.957 270.73 105.414 290.103 105.414 C 309.477 105.414 334.569 192.957 334.569 270.551 Z " fill="rgb(163,228,64)"/><path d=" M 334.569 270.551 C 334.569 348.145 314.661 346.761 290.103 346.761 C 265.546 346.761 245.638 348.145 245.638 270.551 C 245.638 192.957 270.73 105.414 290.103 105.414 C 309.477 105.414 334.569 192.957 334.569 270.551 Z " fill="rgb(163,228,64)"/><path d=" M 334.565 270.549 C 334.565 348.147 314.661 346.759 290.103 346.759 C 286.103 346.759 282.22 346.798 278.528 346.518 C 297.467 345.111 311.414 335.482 311.414 270.549 C 311.414 207.862 295.029 138.688 278.528 114.419 C 282.451 108.645 286.383 105.416 290.103 105.416 C 309.477 105.417 334.565 192.961 334.565 270.549 Z " fill="rgb(153,213,59)"/></g><g><path d=" M 47.386 327.171 C 47.386 386.936 74.325 385.871 107.555 385.871 C 140.785 385.871 167.724 386.936 167.724 327.171 C 167.724 267.406 133.77 199.977 107.555 199.977 C 81.339 199.977 47.386 267.406 47.386 327.171 L 47.386 327.171 Z " fill="rgb(163,228,64)"/><path d=" M 47.386 327.171 C 47.386 386.936 74.325 385.871 107.555 385.871 C 140.785 385.871 167.724 386.936 167.724 327.171 C 167.724 267.406 133.77 199.977 107.555 199.977 C 81.339 199.977 47.386 267.406 47.386 327.171 L 47.386 327.171 Z " fill="rgb(153,213,59)"/><path d=" M 167.721 327.17 C 167.721 386.939 140.786 385.871 107.557 385.871 C 103.238 385.871 99.036 385.888 94.977 385.787 C 122.163 385.123 142.56 379.174 142.56 327.17 C 142.56 276.662 118.315 220.684 94.977 204.556 C 99.254 201.59 103.498 199.976 107.557 199.976 C 133.769 199.977 167.721 267.402 167.721 327.17 Z " fill="rgb(141,198,55)"/></g><g><path d=" M 225.099 329.418 C 225.099 373.584 205.19 372.797 180.633 372.797 C 156.076 372.797 136.168 373.585 136.168 329.418 C 136.168 285.25 161.26 235.42 180.633 235.42 C 200.006 235.42 225.099 285.251 225.099 329.418 Z " fill="rgb(163,228,64)"/><path d=" M 225.099 329.418 C 225.099 373.584 205.19 372.797 180.633 372.797 C 156.076 372.797 136.168 373.585 136.168 329.418 C 136.168 285.25 161.26 235.42 180.633 235.42 C 200.006 235.42 225.099 285.251 225.099 329.418 Z " fill="rgb(163,228,64)"/><path d=" M 225.094 329.414 C 225.094 373.585 205.194 372.795 180.629 372.795 C 176.049 372.795 171.636 372.82 167.477 372.576 C 185.613 371.526 198.79 365.349 198.79 329.414 C 198.79 294.866 183.436 256.855 167.477 241.929 C 171.914 237.778 176.411 235.416 180.629 235.416 C 200.009 235.417 225.094 285.252 225.094 329.414 Z " fill="rgb(153,213,59)"/></g><g><path d=" M 462.091 350.933 C 462.091 382.765 447.743 382.197 430.044 382.197 C 412.345 382.197 397.997 382.765 397.997 350.933 C 397.997 319.102 416.081 283.188 430.044 283.188 C 444.007 283.188 462.091 319.102 462.091 350.933 Z " fill="rgb(163,228,64)"/><path d=" M 462.091 350.933 C 462.091 382.765 447.743 382.197 430.044 382.197 C 412.345 382.197 397.997 382.765 397.997 350.933 C 397.997 319.102 416.081 283.188 430.044 283.188 C 444.007 283.188 462.091 319.102 462.091 350.933 Z " fill="rgb(163,228,64)"/><path d=" M 462.094 350.937 C 462.094 382.763 447.74 382.199 430.042 382.199 C 426.277 382.199 422.663 382.224 419.31 381.955 C 431.731 380.972 440.614 375.989 440.614 350.936 C 440.614 326.942 430.344 300.639 419.31 289.125 C 422.907 285.36 426.596 283.183 430.042 283.183 C 444.009 283.185 462.094 319.102 462.094 350.937 Z " fill="rgb(153,213,59)"/></g><path d=" M 464.615 411.003 L 436.355 411.003 L 436.355 388.472 C 443.797 388.325 450.752 387.547 456.604 383.481 C 464.652 377.89 468.401 367.547 468.401 350.933 C 468.401 332.465 462.332 310.939 453.446 295.869 C 465.014 284.072 471.37 268.576 471.37 251.96 C 471.37 220.917 448.315 194.282 417.677 189.824 C 413.171 180.551 405.901 172.866 396.949 167.827 C 393.332 136.07 366.66 112.215 334.57 112.215 C 326.248 112.215 318.204 113.82 310.611 116.963 C 304.091 104.988 297.313 99.103 290.104 99.103 C 282.795 99.103 276.031 105.059 269.429 117.31 C 264.183 127.042 259.029 140.84 254.523 157.209 C 251.424 168.466 248.741 180.559 246.519 192.998 C 235.337 186.423 222.698 182.974 209.513 182.974 C 205.648 182.974 201.836 183.28 198.103 183.868 L 198.103 136.15 C 198.103 115.013 184.756 95.967 164.891 88.758 C 161.616 87.569 157.997 89.261 156.807 92.536 C 155.618 95.812 157.31 99.43 160.586 100.619 C 175.478 106.024 185.483 120.302 185.483 136.149 L 185.483 187.036 C 173.283 191.275 162.417 198.665 154.005 208.416 L 154.005 198.111 L 166.13 185.985 C 168.594 183.52 168.594 179.526 166.13 177.062 C 163.666 174.599 159.671 174.599 157.207 177.062 L 154.005 180.265 L 154.005 141.809 C 154.005 138.324 151.18 135.5 147.695 135.5 C 144.21 135.5 141.385 138.324 141.385 141.809 L 141.385 151.244 L 135.022 144.881 C 132.558 142.418 128.562 142.418 126.099 144.881 C 123.635 147.346 123.635 151.34 126.099 153.804 L 141.386 169.091 L 141.386 218.022 C 132.184 204.759 121.363 194.996 109.908 193.802 L 109.908 136.15 C 109.908 120.357 119.865 106.094 134.687 100.66 C 137.959 99.461 139.638 95.836 138.438 92.564 C 137.239 89.292 133.615 87.616 130.342 88.812 C 110.571 96.061 97.288 115.084 97.288 136.15 L 97.288 196.023 C 85.115 201.485 72.669 216.272 61.96 238.415 C 48.882 265.454 41.076 298.634 41.076 327.171 C 41.076 356.388 47.359 374.363 60.847 383.734 C 71.918 391.426 86.088 392.12 101.245 392.176 L 101.245 411.003 L 46.94 411.003 C 43.455 411.003 40.63 413.827 40.63 417.313 C 40.63 420.798 43.455 423.623 46.94 423.623 L 464.615 423.623 C 468.101 423.623 470.925 420.798 470.925 417.313 C 470.925 413.827 468.1 411.003 464.615 411.003 L 464.615 411.003 Z  M 160.507 378.211 C 164.903 378.873 169.542 379.048 174.323 379.091 L 174.323 411.004 L 154.003 411.004 L 154.003 383.933 C 156.322 382.349 158.496 380.46 160.507 378.211 Z  M 186.943 379.092 C 192.619 379.043 198.097 378.81 203.202 377.788 L 203.202 411.003 L 186.943 411.003 L 186.943 379.092 Z  M 253.366 341.259 C 259.339 348.55 266.605 351.336 274.266 352.405 C 266.326 357.455 257.113 360.164 247.431 360.164 C 240.584 360.164 234 358.816 227.808 356.175 C 230.235 349.132 231.408 340.296 231.408 329.418 C 231.408 328.348 231.384 327.266 231.356 326.184 C 235.725 324.822 239.936 323.046 243.965 320.893 C 246.217 329.658 249.324 336.325 253.366 341.259 L 253.366 341.259 Z  M 216.09 372.571 C 218.217 371.093 220.108 369.343 221.779 367.314 C 229.287 370.687 237.263 372.517 245.557 372.756 L 245.557 411.003 L 215.823 411.003 L 216.09 372.571 Z  M 258.176 371.86 C 267.445 370.277 276.153 366.653 283.794 361.195 L 283.794 411.003 L 258.176 411.003 L 258.176 371.86 Z  M 296.413 353.048 C 301.333 352.972 306.242 352.661 310.917 351.43 L 310.917 411.003 L 296.413 411.003 L 296.413 353.048 Z  M 337.307 344.92 L 337.307 411.003 L 323.537 411.003 L 323.537 344.729 C 324.675 343.702 325.78 342.554 326.842 341.259 C 328.095 339.728 329.258 338.028 330.335 336.155 C 332.367 339.213 334.695 342.405 337.307 344.92 Z  M 349.926 353.398 C 354.909 355.864 360.329 357.522 365.999 358.233 L 365.999 411.003 L 349.926 411.003 L 349.926 353.398 Z  M 378.619 358.229 C 383.149 357.66 387.569 356.482 391.765 354.726 C 392.312 369.131 396.069 378.33 403.485 383.481 C 409.337 387.547 416.297 388.348 423.734 388.485 L 423.734 411.002 L 378.618 411.002 L 378.618 358.229 L 378.619 358.229 Z  M 449.405 373.118 C 446.369 375.227 441.779 375.746 436.355 375.861 L 436.355 364.426 C 436.472 364.325 436.589 364.225 436.7 364.114 L 446.719 354.095 C 449.183 351.63 449.183 347.636 446.719 345.172 C 444.254 342.708 440.26 342.708 437.796 345.172 L 436.355 346.613 L 436.355 328.606 C 436.355 325.12 433.53 322.296 430.045 322.296 C 426.559 322.296 423.735 325.12 423.735 328.606 L 423.735 375.863 C 418.304 375.747 413.721 375.229 410.685 373.119 C 406.393 370.137 404.307 362.881 404.307 350.934 C 404.307 337.122 408.104 321.024 414.464 307.871 C 420.938 294.486 427.456 289.498 430.045 289.498 C 432.634 289.498 439.151 294.486 445.625 307.871 C 451.986 321.024 455.782 337.122 455.782 350.934 C 455.782 362.88 453.696 370.136 449.405 373.118 L 449.405 373.118 Z  M 458.751 251.96 C 458.751 264.513 454.206 276.266 445.899 285.479 C 440.955 280.115 435.544 276.878 430.045 276.878 C 427.572 276.878 425.118 277.532 422.716 278.738 L 422.716 211.778 C 422.716 208.998 422.481 206.274 422.046 203.615 C 443.372 209.567 458.751 229.292 458.751 251.96 L 458.751 251.96 Z  M 335.36 202.966 C 339.875 186.674 355.38 173.989 372.309 173.989 C 393.146 173.989 410.097 190.941 410.097 211.778 L 410.097 290.54 C 401.153 303.018 394.33 322.219 392.306 340.299 C 392.275 340.316 392.244 340.331 392.215 340.349 C 388.049 342.937 383.429 344.651 378.619 345.462 L 378.619 308.453 L 390.744 296.328 C 393.208 293.863 393.208 289.869 390.744 287.404 C 388.279 284.941 384.285 284.941 381.821 287.404 L 378.619 290.606 L 378.619 252.152 C 378.619 248.666 375.794 245.842 372.309 245.842 C 368.824 245.842 365.999 248.666 365.999 252.152 L 365.999 261.587 L 359.637 255.223 C 357.173 252.759 353.177 252.758 350.714 255.223 C 348.249 257.687 348.249 261.682 350.713 264.145 L 366 279.433 L 366 345.48 C 352.408 343.193 340.956 333.624 336.469 320.237 C 336.458 320.204 336.443 320.174 336.432 320.141 C 339.461 307.934 340.879 291.739 340.879 270.55 C 340.879 249.181 338.922 225.749 335.36 202.966 L 335.36 202.966 Z  M 290.103 111.723 C 291.576 111.723 298.933 117.015 308.034 142.905 C 309.189 146.192 312.787 147.921 316.079 146.765 C 319.366 145.609 321.095 142.008 319.939 138.719 C 318.633 135.006 317.32 131.568 315.998 128.383 C 321.891 126.029 328.125 124.835 334.57 124.835 C 357.904 124.835 377.655 140.613 383.2 162.568 C 379.69 161.792 376.049 161.37 372.309 161.37 C 355.919 161.37 340.906 169.373 331.6 182.072 C 330.648 177.426 329.636 172.84 328.554 168.352 C 327.736 164.965 324.329 162.879 320.94 163.698 C 317.553 164.516 315.469 167.924 316.286 171.312 C 323.895 202.858 328.259 239.029 328.259 270.55 C 328.259 303.565 324.602 324.077 317.078 333.261 C 312.238 339.169 306.073 340.241 296.413 340.418 L 296.413 308.119 L 316.882 287.649 C 319.347 285.184 319.347 281.19 316.882 278.726 C 314.417 276.262 310.423 276.262 307.959 278.726 L 296.413 290.272 L 296.413 237.686 C 296.413 234.2 293.589 231.376 290.103 231.376 C 286.618 231.376 283.794 234.2 283.794 237.686 L 283.794 250.877 L 274.82 241.902 C 272.355 239.439 268.36 239.439 265.896 241.902 C 263.432 244.367 263.432 248.362 265.896 250.826 L 283.774 268.704 C 283.781 268.711 283.788 268.716 283.794 268.722 L 283.794 340.418 C 274.134 340.241 267.967 339.168 263.128 333.261 C 255.605 324.077 251.948 303.565 251.948 270.55 C 251.948 235.208 257.459 194.09 266.689 160.558 C 277.74 120.413 288.125 111.723 290.103 111.723 L 290.103 111.723 Z  M 209.512 195.594 C 222.096 195.594 234.078 199.385 244.297 206.564 C 241.093 228.157 239.328 250.277 239.328 270.551 C 239.328 285.263 240.014 297.562 241.445 307.798 C 237.946 309.972 234.254 311.769 230.405 313.18 C 228.372 296.182 223.305 278.61 215.822 263.131 L 215.822 247.833 L 229.119 234.535 C 231.583 232.071 231.583 228.077 229.119 225.613 C 226.655 223.149 222.66 223.148 220.196 225.613 L 215.823 229.987 L 215.823 222.703 C 215.823 219.218 212.998 216.394 209.513 216.394 C 206.028 216.394 203.203 219.218 203.203 222.703 L 203.203 242.825 C 195.857 233.94 188.067 229.11 180.634 229.11 C 171.702 229.11 163.367 235.658 156.227 245.126 C 154.95 242.21 153.595 239.309 152.17 236.452 C 160.599 212.012 183.64 195.594 209.512 195.594 L 209.512 195.594 Z  M 68.048 373.371 C 61.886 369.089 53.695 359.643 53.695 327.171 C 53.695 300.444 61.031 269.318 73.32 243.909 C 84.373 221.055 97.811 206.287 107.555 206.287 C 117.743 206.287 134.874 224.126 147.964 258.219 C 144.008 265.613 140.67 273.617 138.127 281.218 C 137.022 284.523 138.804 288.098 142.109 289.203 C 145.413 290.312 148.989 288.526 150.094 285.221 C 159.081 258.357 172.943 241.729 180.632 241.729 C 185.844 241.729 195.521 250.139 204.45 268.602 C 213.428 287.167 218.788 309.902 218.788 329.418 C 218.788 346.853 215.55 357.579 208.889 362.207 C 203.662 365.838 195.951 366.38 186.942 366.468 L 186.942 347.173 L 207.411 326.704 C 209.876 324.239 209.876 320.244 207.411 317.78 C 204.947 315.317 200.952 315.317 198.489 317.78 L 186.942 329.327 L 186.942 298.436 C 186.942 294.951 184.117 292.127 180.632 292.127 C 177.148 292.127 174.323 294.951 174.323 298.436 L 174.323 366.473 C 165.312 366.39 157.603 365.839 152.376 362.208 C 145.715 357.58 142.477 346.854 142.477 329.418 C 142.477 324.318 142.833 318.972 143.537 313.53 C 143.984 310.075 141.545 306.911 138.089 306.463 C 134.632 306.021 131.469 308.455 131.022 311.912 C 130.249 317.889 129.857 323.778 129.857 329.419 C 129.857 351.599 134.725 365.311 145.175 372.572 C 145.688 372.928 146.211 373.256 146.738 373.574 C 138.705 378.969 127.433 379.499 113.864 379.554 L 113.864 313.67 L 123.553 303.982 C 126.017 301.517 126.017 297.523 123.553 295.058 C 121.088 292.595 117.093 292.595 114.63 295.058 L 113.864 295.824 L 113.864 278.454 C 113.864 274.968 111.039 272.144 107.555 272.144 C 104.07 272.144 101.245 274.968 101.245 278.454 L 101.245 332.429 L 93.301 324.484 C 90.837 322.021 86.841 322.021 84.378 324.484 C 81.914 326.949 81.914 330.944 84.378 333.408 L 100.354 349.384 C 100.633 349.662 100.933 349.905 101.246 350.12 L 101.246 379.556 C 87.722 379.502 76.085 378.953 68.048 373.371 L 68.048 373.371 Z  M 113.864 392.173 C 123.604 392.132 132.992 391.827 141.384 389.567 L 141.384 411.003 L 113.864 411.003 L 113.864 392.173 Z " fill="rgb(0,0,0)"/></g></g></svg>