<?xml version="1.0" encoding="UTF-8" standalone="no"?><!-- Generator: Gravit.io --><svg xmlns="http://www.w3.org/2000/svg" xmlns:xlink="http://www.w3.org/1999/xlink" style="isolation:isolate" viewBox="0 0 512 512" width="512pt" height="512pt"><defs><clipPath id="_clipPath_7aFub14tSpNNQkLBjAOxw4Ax3cHCEKXa"><rect width="512" height="512"/></clipPath></defs><g clip-path="url(#_clipPath_7aFub14tSpNNQkLBjAOxw4Ax3cHCEKXa)"><rect width="512" height="512" style="fill:rgb(235,251,255)"/><g><g><path d=" M 115.498 325.001 C 115.498 328.861 105.659 332 93.501 332 C 81.342 332 71.503 328.861 71.503 325.001 C 71.503 321.601 79.142 318.762 89.281 318.142 C 89.41 317.435 89.484 316.72 89.501 316.002 L 89.501 300.004 C 89.58 295.388 88.8 290.797 87.201 286.466 C 88.261 287.106 89.361 287.745 90.501 288.385 C 92.366 289.425 94.636 289.425 96.5 288.385 C 97.64 287.745 98.74 287.106 99.8 286.466 C 98.201 290.797 97.422 295.388 97.5 300.004 L 97.5 316.002 C 97.518 316.72 97.591 317.435 97.72 318.142 C 107.859 318.762 115.498 321.601 115.498 325.001 Z " fill="rgb(0,165,207)"/><path d=" M 131.496 246.01 C 131.496 247.43 130.356 248.79 128.316 250.01 C 124.465 247.996 120.311 246.625 116.018 245.95 C 118.739 244.649 120.112 241.564 119.258 238.671 C 126.797 240.491 131.496 243.111 131.496 246.01 Z " fill="rgb(0,165,207)"/><path d=" M 102.96 244.331 C 99.94 244.111 96.76 244.011 93.501 244.011 C 77.942 244.011 64.544 246.47 58.685 250.01 C 56.645 248.79 55.505 247.43 55.505 246.01 C 55.505 240.491 72.523 236.012 93.501 236.012 C 95.12 236.012 96.74 236.032 98.3 236.092 C 98.32 239.46 100.083 242.578 102.96 244.331 Z " fill="rgb(0,165,207)"/></g><path d=" M 128.316 250.01 C 128.057 250.17 127.777 250.33 127.477 250.49 C 127.177 250.63 126.877 250.79 126.557 250.93 C 126.277 251.07 125.997 251.19 125.697 251.31 C 125.297 251.49 124.897 251.65 124.457 251.81 C 116.184 254.417 107.573 255.798 98.9 255.909 C 97.14 255.969 95.34 256.009 93.501 256.009 C 77.942 256.009 64.544 253.55 58.685 250.01 C 64.544 246.47 77.942 244.011 93.501 244.011 C 96.76 244.011 99.94 244.111 102.96 244.331 C 103.841 244.967 104.794 245.497 105.799 245.91 C 109.031 247.409 112.755 247.424 115.998 245.95 C 116.018 245.97 116.018 245.97 116.018 245.95 C 120.311 246.625 124.465 247.996 128.316 250.01 Z " fill="rgb(0,66,132)"/><path d=" M 131.496 246.01 C 131.496 246.01 131.496 267.268 99.8 286.466 C 98.733 287.106 97.633 287.745 96.5 288.385 C 94.636 289.425 92.366 289.425 90.501 288.385 C 89.361 287.745 88.261 287.106 87.201 286.466 C 55.505 267.268 55.505 246.01 55.505 246.01 C 55.505 247.43 56.645 248.79 58.685 250.01 C 64.544 253.55 77.942 256.009 93.501 256.009 C 95.34 256.009 97.14 255.969 98.9 255.909 C 107.573 255.798 116.184 254.417 124.457 251.81 C 124.897 251.65 125.297 251.49 125.697 251.31 C 125.997 251.19 126.277 251.07 126.557 250.93 C 126.877 250.79 127.177 250.63 127.477 250.49 C 127.777 250.35 128.057 250.17 128.316 250.01 C 130.356 248.79 131.496 247.43 131.496 246.01 Z " fill="rgb(0,35,71)"/><path d=" M 131.496 246.01 C 131.496 246.01 131.496 267.268 99.8 286.466 C 98.733 287.106 97.633 287.745 96.5 288.385 C 94.636 289.425 92.366 289.425 90.501 288.385 C 91.641 287.745 92.741 287.106 93.801 286.466 C 115.338 273.427 122.237 259.429 124.457 251.81 C 124.897 251.65 125.297 251.49 125.697 251.31 C 125.997 251.19 126.277 251.07 126.557 250.93 C 126.877 250.79 127.177 250.63 127.477 250.49 C 127.777 250.35 128.057 250.17 128.316 250.01 C 130.356 248.79 131.496 247.43 131.496 246.01 Z " fill="rgb(2,44,87)"/><path d=" M 119.038 242.771 C 118.437 244.153 117.368 245.279 116.018 245.95 C 116.018 245.97 116.018 245.97 115.998 245.95 C 112.755 247.424 109.031 247.409 105.799 245.91 C 104.794 245.497 103.841 244.967 102.96 244.331 C 100.083 242.578 98.32 239.46 98.3 236.092 C 98.337 235.47 98.486 234.86 98.74 234.292 C 100.44 230.212 106.379 228.812 111.978 231.152 C 115.416 232.43 118.092 235.194 119.258 238.671 C 119.638 240.025 119.56 241.466 119.038 242.771 Z " fill="rgb(122,229,130)"/><path d=" M 119.258 238.671 C 118.092 235.194 115.416 232.43 111.978 231.152 C 109.35 230.002 106.419 229.743 103.629 230.412 C 104.432 230.597 105.218 230.847 105.979 231.16 C 109.417 232.438 112.093 235.202 113.258 238.679 C 114.112 241.572 112.74 244.657 110.019 245.958 C 110.019 245.978 110.019 245.978 109.999 245.958 C 109.411 246.263 108.791 246.5 108.151 246.664 C 110.767 247.371 113.55 247.121 115.998 245.958 C 116.018 245.978 116.018 245.978 116.018 245.958 C 118.739 244.657 120.112 241.572 119.258 238.679 L 119.258 238.671 Z " fill="rgb(112,208,118)"/><circle vector-effect="non-scaling-stroke" cx="121.49730423476517" cy="220.01352744243275" r="3.999525352897095" fill="rgb(0,35,71)"/><path d=" M 120.781 237.012 C 119.882 234.859 118.434 232.98 116.582 231.562 L 120.181 225.853 C 122.668 226.412 125.237 225.338 126.587 223.176 C 127.936 221.014 127.772 218.234 126.177 216.246 C 124.582 214.258 121.905 213.494 119.501 214.342 C 117.098 215.19 115.492 217.465 115.498 220.014 C 115.503 221.355 115.963 222.655 116.802 223.701 L 113.16 229.5 C 113.022 229.438 112.888 229.368 112.748 229.3 C 106.137 226.535 99.026 228.421 96.898 233.51 C 96.822 233.692 96.768 233.878 96.698 234.064 C 95.642 234.042 94.582 234.012 93.501 234.012 C 73.625 234.012 53.505 238.133 53.505 246.01 C 53.505 246.948 53.905 268.35 85.524 287.759 C 86.889 291.695 87.558 295.839 87.501 300.004 L 87.501 316.002 C 87.501 316.002 87.501 316.118 87.489 316.276 C 78.842 317.034 69.503 319.696 69.503 325.001 C 69.503 331.184 81.942 334 93.501 334 C 105.059 334 117.498 331.184 117.498 325.001 C 117.498 319.696 108.159 317.034 99.512 316.27 C 99.5 316.114 99.5 316.002 99.5 316.002 L 99.5 300.004 C 99.443 295.839 100.112 291.696 101.478 287.761 C 133.096 268.352 133.496 246.948 133.496 246.01 C 133.496 242.211 129.188 239.199 120.781 237.012 Z  M 121.497 218.014 C 122.602 218.014 123.497 218.909 123.497 220.014 C 123.497 221.118 122.602 222.013 121.497 222.013 C 120.393 222.013 119.498 221.118 119.498 220.014 C 119.498 218.909 120.393 218.014 121.497 218.014 Z  M 102.35 246.302 C 102.408 246.338 102.458 246.382 102.516 246.418 L 97.784 253.93 C 96.384 253.971 94.96 254.009 93.501 254.009 C 81.548 254.009 70.261 252.458 63.47 250.01 C 70.257 247.562 81.544 246.01 93.501 246.01 C 96.65 246.01 99.612 246.112 102.35 246.302 Z  M 106.149 248.156 C 107.777 248.718 109.485 249.011 111.207 249.024 C 112.92 249.032 114.618 248.692 116.196 248.024 C 118.686 248.507 121.138 249.171 123.531 250.01 C 116.763 252.15 109.743 253.392 102.652 253.706 L 106.149 248.156 Z  M 129.496 246.01 C 129.496 246.372 129.128 246.964 128.209 247.666 C 125.645 246.432 122.955 245.481 120.185 244.831 C 120.458 244.424 120.69 243.992 120.879 243.541 C 121.171 242.833 121.357 242.085 121.431 241.323 C 127.297 243.069 129.496 245.011 129.496 246.01 Z  M 100.586 235.054 C 101.785 232.953 104.116 231.762 106.521 232.022 C 108.131 232.035 109.722 232.364 111.205 232.992 C 111.755 233.222 112.29 233.489 112.804 233.792 L 112.818 233.792 C 116.33 235.886 118.286 239.365 117.19 241.991 C 115.934 244.991 111.073 245.932 106.571 244.051 C 104.382 243.192 102.518 241.669 101.24 239.695 C 100.286 238.344 100.042 236.616 100.586 235.054 Z  M 93.501 238.011 C 94.483 238.011 95.442 238.039 96.41 238.059 C 96.639 239.379 97.118 240.642 97.822 241.781 C 97.886 241.887 97.978 241.981 98.046 242.085 C 96.57 242.041 95.062 242.011 93.501 242.011 C 78.676 242.011 65.608 244.163 58.793 247.668 C 57.873 246.966 57.505 246.372 57.505 246.01 C 57.505 243.297 70.211 238.011 93.501 238.011 Z  M 113.498 325.001 C 113.498 326.497 106.699 330 93.501 330 C 80.302 330 73.503 326.497 73.503 325.001 C 73.503 324.001 77.437 321.365 86.555 320.384 C 86.153 321.408 85.517 322.326 84.7 323.063 C 84.126 323.518 83.847 324.251 83.972 324.972 C 84.097 325.694 84.607 326.289 85.301 326.524 C 85.995 326.759 86.761 326.596 87.299 326.099 C 89.441 324.082 90.833 321.398 91.247 318.486 C 91.398 317.666 91.483 316.836 91.501 316.002 L 91.501 300.004 C 91.508 296.834 91.165 293.674 90.479 290.579 C 92.417 291.366 94.585 291.366 96.522 290.579 C 95.836 293.674 95.493 296.834 95.5 300.004 L 95.5 316.002 C 95.517 316.838 95.6 317.671 95.75 318.494 C 96.168 321.401 97.56 324.08 99.698 326.093 C 100.54 326.761 101.76 326.643 102.459 325.827 C 103.159 325.01 103.087 323.787 102.298 323.057 C 101.48 322.319 100.845 321.402 100.442 320.378 C 109.565 321.365 113.498 324.001 113.498 325.001 Z  M 95.52 286.632 C 94.268 287.341 92.735 287.341 91.483 286.632 C 69.14 274.089 61.486 260.251 58.873 252.396 C 65.704 255.877 78.738 258.009 93.501 258.009 C 94.101 258.009 94.652 257.985 95.236 257.977 L 85.81 272.941 C 85.417 273.546 85.38 274.315 85.713 274.955 C 86.046 275.594 86.698 276.005 87.419 276.029 C 88.139 276.054 88.817 275.688 89.193 275.073 L 100.038 257.859 C 112.1 257.311 122.381 255.305 128.129 252.394 C 125.509 260.251 117.862 274.089 95.52 286.632 Z " fill="rgb(0,0,0)"/><circle vector-effect="non-scaling-stroke" cx="105.49920282317673" cy="236.01162885402113" r="1.9997626764485545" fill="rgb(0,0,0)"/></g><g><g><path d=" M 440.501 325.001 C 440.501 328.861 430.662 332 418.503 332 C 406.345 332 396.506 328.861 396.506 325.001 C 396.506 321.601 404.145 318.762 414.284 318.142 C 414.413 317.435 414.486 316.72 414.504 316.002 L 414.504 300.004 C 414.582 295.388 413.803 290.797 412.204 286.466 C 413.264 287.106 414.364 287.745 415.504 288.385 C 417.368 289.425 419.638 289.425 421.503 288.385 C 422.643 287.745 423.743 287.106 424.803 286.466 C 423.204 290.797 422.424 295.388 422.503 300.004 L 422.503 316.002 C 422.52 316.72 422.594 317.435 422.723 318.142 C 432.862 318.762 440.501 321.601 440.501 325.001 Z " fill="rgb(0,165,207)"/><path d=" M 456.499 246.01 C 456.499 247.43 455.359 248.79 453.319 250.01 C 449.468 247.996 445.314 246.625 441.021 245.95 C 443.742 244.649 445.114 241.564 444.26 238.671 C 451.799 240.491 456.499 243.111 456.499 246.01 Z " fill="rgb(0,165,207)"/><path d=" M 427.962 244.331 C 424.943 244.111 421.763 244.011 418.503 244.011 C 402.945 244.011 389.547 246.47 383.688 250.01 C 381.648 248.79 380.508 247.43 380.508 246.01 C 380.508 240.491 397.526 236.012 418.503 236.012 C 420.123 236.012 421.743 236.032 423.303 236.092 C 423.323 239.46 425.086 242.578 427.962 244.331 Z " fill="rgb(0,165,207)"/></g><path d=" M 453.319 250.01 C 453.059 250.17 452.779 250.33 452.479 250.49 C 452.179 250.63 451.879 250.79 451.559 250.93 C 451.279 251.07 451 251.19 450.7 251.31 C 450.3 251.49 449.9 251.65 449.46 251.81 C 441.187 254.417 432.576 255.798 423.903 255.909 C 422.143 255.969 420.343 256.009 418.503 256.009 C 402.945 256.009 389.547 253.55 383.688 250.01 C 389.547 246.47 402.945 244.011 418.503 244.011 C 421.763 244.011 424.943 244.111 427.962 244.331 C 428.844 244.967 429.797 245.497 430.802 245.91 C 434.033 247.409 437.758 247.424 441.001 245.95 C 441.021 245.97 441.021 245.97 441.021 245.95 C 445.314 246.625 449.468 247.996 453.319 250.01 Z " fill="rgb(0,66,132)"/><path d=" M 456.499 246.01 C 456.499 246.01 456.499 267.268 424.803 286.466 C 423.736 287.106 422.636 287.745 421.503 288.385 C 419.638 289.425 417.368 289.425 415.504 288.385 C 414.364 287.745 413.264 287.106 412.204 286.466 C 380.508 267.268 380.508 246.01 380.508 246.01 C 380.508 247.43 381.648 248.79 383.688 250.01 C 389.547 253.55 402.945 256.009 418.503 256.009 C 420.343 256.009 422.143 255.969 423.903 255.909 C 432.576 255.798 441.187 254.417 449.46 251.81 C 449.9 251.65 450.3 251.49 450.7 251.31 C 451 251.19 451.279 251.07 451.559 250.93 C 451.879 250.79 452.179 250.63 452.479 250.49 C 452.779 250.35 453.059 250.17 453.319 250.01 C 455.359 248.79 456.499 247.43 456.499 246.01 Z " fill="rgb(0,35,71)"/><path d=" M 456.499 246.01 C 456.499 246.01 456.499 267.268 424.803 286.466 C 423.736 287.106 422.636 287.745 421.503 288.385 C 419.638 289.425 417.368 289.425 415.504 288.385 C 416.644 287.745 417.743 287.106 418.803 286.466 C 440.341 273.427 447.24 259.429 449.46 251.81 C 449.9 251.65 450.3 251.49 450.7 251.31 C 451 251.19 451.279 251.07 451.559 250.93 C 451.879 250.79 452.179 250.63 452.479 250.49 C 452.779 250.35 453.059 250.17 453.319 250.01 C 455.359 248.79 456.499 247.43 456.499 246.01 Z " fill="rgb(2,44,87)"/><path d=" M 444.04 242.771 C 443.44 244.153 442.37 245.279 441.021 245.95 C 441.021 245.97 441.021 245.97 441.001 245.95 C 437.758 247.424 434.033 247.409 430.802 245.91 C 429.797 245.497 428.844 244.967 427.962 244.331 C 425.086 242.578 423.323 239.46 423.303 236.092 C 423.34 235.47 423.489 234.86 423.743 234.292 C 425.443 230.212 431.382 228.812 436.981 231.152 C 440.419 232.43 443.095 235.194 444.26 238.671 C 444.64 240.025 444.563 241.466 444.04 242.771 Z " fill="rgb(122,229,130)"/><path d=" M 444.26 238.671 C 443.095 235.194 440.419 232.43 436.981 231.152 C 434.353 230.002 431.421 229.743 428.632 230.412 C 429.435 230.597 430.221 230.847 430.982 231.16 C 434.42 232.438 437.096 235.202 438.261 238.679 C 439.115 241.572 437.742 244.657 435.021 245.958 C 435.021 245.978 435.021 245.978 435.001 245.958 C 434.414 246.263 433.794 246.5 433.154 246.664 C 435.77 247.371 438.553 247.121 441.001 245.958 C 441.021 245.978 441.021 245.978 441.021 245.958 C 443.742 244.657 445.114 241.572 444.26 238.679 L 444.26 238.671 Z " fill="rgb(112,208,118)"/><circle vector-effect="non-scaling-stroke" cx="446.5000507057943" cy="220.01352744243272" r="3.9995253528970807" fill="rgb(0,35,71)"/><path d=" M 445.784 237.012 C 444.885 234.859 443.437 232.98 441.585 231.562 L 445.184 225.853 C 447.671 226.412 450.24 225.338 451.589 223.176 C 452.939 221.014 452.775 218.234 451.18 216.246 C 449.585 214.258 446.908 213.494 444.504 214.342 C 442.1 215.19 440.495 217.465 440.501 220.014 C 440.506 221.355 440.966 222.655 441.805 223.701 L 438.163 229.5 C 438.025 229.438 437.891 229.368 437.751 229.3 C 431.14 226.535 424.029 228.421 421.901 233.51 C 421.825 233.692 421.771 233.878 421.701 234.064 C 420.645 234.042 419.585 234.012 418.503 234.012 C 398.628 234.012 378.508 238.133 378.508 246.01 C 378.508 246.948 378.908 268.35 410.526 287.759 C 411.892 291.695 412.561 295.839 412.504 300.004 L 412.504 316.002 C 412.504 316.002 412.504 316.118 412.492 316.276 C 403.845 317.034 394.506 319.696 394.506 325.001 C 394.506 331.184 406.945 334 418.503 334 C 430.062 334 442.501 331.184 442.501 325.001 C 442.501 319.696 433.162 317.034 424.515 316.27 C 424.503 316.114 424.503 316.002 424.503 316.002 L 424.503 300.004 C 424.446 295.839 425.115 291.696 426.48 287.761 C 458.099 268.352 458.499 246.948 458.499 246.01 C 458.499 242.211 454.191 239.199 445.784 237.012 Z  M 446.5 218.014 C 447.604 218.014 448.5 218.909 448.5 220.014 C 448.5 221.118 447.604 222.013 446.5 222.013 C 445.396 222.013 444.5 221.118 444.5 220.014 C 444.5 218.909 445.396 218.014 446.5 218.014 Z  M 427.352 246.302 C 427.41 246.338 427.46 246.382 427.518 246.418 L 422.787 253.93 C 421.387 253.971 419.963 254.009 418.503 254.009 C 406.551 254.009 395.264 252.458 388.473 250.01 C 395.26 247.562 406.547 246.01 418.503 246.01 C 421.653 246.01 424.615 246.112 427.352 246.302 Z  M 431.152 248.156 C 432.779 248.718 434.488 249.011 436.209 249.024 C 437.923 249.032 439.62 248.692 441.199 248.024 C 443.689 248.507 446.14 249.171 448.534 250.01 C 441.766 252.15 434.746 253.392 427.654 253.706 L 431.152 248.156 Z  M 454.499 246.01 C 454.499 246.372 454.131 246.964 453.211 247.666 C 450.648 246.432 447.958 245.481 445.188 244.831 C 445.461 244.424 445.693 243.992 445.882 243.541 C 446.174 242.833 446.36 242.085 446.434 241.323 C 452.299 243.069 454.499 245.011 454.499 246.01 Z  M 425.589 235.054 C 426.788 232.953 429.118 231.762 431.524 232.022 C 433.134 232.035 434.725 232.364 436.207 232.992 C 436.758 233.222 437.293 233.489 437.807 233.792 L 437.821 233.792 C 441.333 235.886 443.288 239.365 442.193 241.991 C 440.937 244.991 436.075 245.932 431.574 244.051 C 429.385 243.192 427.52 241.669 426.242 239.695 C 425.288 238.344 425.045 236.616 425.589 235.054 Z  M 418.503 238.011 C 419.485 238.011 420.445 238.039 421.413 238.059 C 421.641 239.379 422.121 240.642 422.825 241.781 C 422.889 241.887 422.981 241.981 423.049 242.085 C 421.573 242.041 420.065 242.011 418.503 242.011 C 403.679 242.011 390.611 244.163 383.795 247.668 C 382.876 246.966 382.508 246.372 382.508 246.01 C 382.508 243.297 395.214 238.011 418.503 238.011 Z  M 438.501 325.001 C 438.501 326.497 431.702 330 418.503 330 C 405.305 330 398.506 326.497 398.506 325.001 C 398.506 324.001 402.439 321.365 411.558 320.384 C 411.155 321.408 410.52 322.326 409.702 323.063 C 409.129 323.518 408.849 324.251 408.975 324.972 C 409.1 325.694 409.61 326.289 410.304 326.524 C 410.998 326.759 411.764 326.596 412.302 326.099 C 414.443 324.082 415.835 321.398 416.25 318.486 C 416.401 317.666 416.486 316.836 416.504 316.002 L 416.504 300.004 C 416.511 296.834 416.168 293.674 415.482 290.579 C 417.419 291.366 419.587 291.366 421.525 290.579 C 420.839 293.674 420.496 296.834 420.503 300.004 L 420.503 316.002 C 420.519 316.838 420.603 317.671 420.753 318.494 C 421.171 321.401 422.562 324.08 424.701 326.093 C 425.543 326.761 426.763 326.643 427.462 325.827 C 428.161 325.01 428.09 323.787 427.3 323.057 C 426.483 322.319 425.848 321.402 425.445 320.378 C 434.567 321.365 438.501 324.001 438.501 325.001 Z  M 420.523 286.632 C 419.271 287.341 417.738 287.341 416.486 286.632 C 394.142 274.089 386.489 260.251 383.875 252.396 C 390.707 255.877 403.741 258.009 418.503 258.009 C 419.103 258.009 419.655 257.985 420.239 257.977 L 410.812 272.941 C 410.419 273.546 410.383 274.315 410.716 274.955 C 411.049 275.594 411.701 276.005 412.421 276.029 C 413.142 276.054 413.82 275.688 414.196 275.073 L 425.041 257.859 C 437.103 257.311 447.384 255.305 453.131 252.394 C 450.512 260.251 442.864 274.089 420.523 286.632 Z " fill="rgb(0,0,0)"/><circle vector-effect="non-scaling-stroke" cx="430.5019492942059" cy="236.0116288540211" r="1.9997626764485403" fill="rgb(0,0,0)"/></g><g><g><path d=" M 468.804 357.98 L 43.196 357.98 C 38.164 357.98 34.084 353.9 34.084 348.868 L 34.084 332.892 C 34.084 327.86 38.164 323.78 43.196 323.78 L 468.802 323.78 C 473.834 323.78 477.914 327.86 477.914 332.892 L 477.914 348.868 C 477.916 353.9 473.836 357.98 468.804 357.98 Z " fill="rgb(1,33,66)"/><path d=" M 435.18 501.776 L 76.82 501.776 C 71.788 501.776 67.708 497.696 67.708 492.664 L 67.708 357.98 L 444.294 357.98 L 444.294 492.662 C 444.294 497.696 440.214 501.776 435.18 501.776 Z " fill="rgb(0,35,71)"/><path d=" M 104.164 501.778 L 76.826 501.778 C 71.778 501.778 67.714 497.696 67.714 492.666 L 67.714 357.974 L 95.052 357.974 L 95.052 492.666 C 95.052 497.696 99.116 501.778 104.164 501.778 Z " fill="rgb(2,44,87)"/><path d=" M 444.286 357.974 L 444.286 492.666 C 444.286 497.696 440.222 501.778 435.174 501.778 L 407.836 501.778 C 412.884 501.778 416.948 497.696 416.948 492.666 L 416.948 357.974 L 444.286 357.974 Z " fill="rgb(1,33,66)"/></g><g><circle vector-effect="non-scaling-stroke" cx="256" cy="129.43599999999998" r="72.70400000000001" fill="rgb(122,229,130)"/><path d=" M 275.126 199.588 C 269.032 201.246 262.63 202.138 256 202.138 C 215.836 202.138 183.296 169.6 183.296 129.434 C 183.296 89.268 215.836 56.73 256 56.73 C 262.63 56.73 269.032 57.622 275.126 59.28 C 244.244 67.67 221.548 95.9 221.548 129.434 C 221.548 162.968 244.244 191.198 275.126 199.588 L 275.126 199.588 Z " fill="rgb(112,208,118)"/></g></g><g><path d=" M 468.802 315.778 L 43.198 315.778 C 33.762 315.778 26.084 323.454 26.084 332.892 L 26.084 348.868 C 26.084 358.304 33.762 365.982 43.198 365.982 L 59.708 365.982 L 59.708 492.664 C 59.708 502.1 67.386 509.776 76.822 509.776 L 435.182 509.776 C 444.618 509.776 452.296 502.1 452.296 492.664 L 452.296 365.98 L 468.806 365.98 C 478.242 365.98 485.92 358.304 485.92 348.866 L 485.92 332.89 C 485.916 323.456 478.238 315.778 468.802 315.778 L 468.802 315.778 Z  M 436.292 492.664 C 436.292 493.278 435.792 493.776 435.178 493.776 L 76.82 493.776 C 76.206 493.776 75.706 493.276 75.706 492.664 L 75.706 365.98 L 436.292 365.98 L 436.292 492.664 Z  M 469.916 348.868 C 469.916 349.482 469.416 349.982 468.802 349.982 C 454.19 349.982 58.266 349.982 43.196 349.982 C 42.582 349.982 42.082 349.482 42.082 348.868 L 42.082 332.892 C 42.082 332.278 42.582 331.778 43.196 331.778 L 468.802 331.778 C 469.416 331.778 469.916 332.278 469.916 332.892 L 469.916 348.868 Z " fill="rgb(0,0,0)"/><path d=" M 407.27 426.324 C 411.688 426.324 415.27 422.742 415.27 418.324 L 415.27 390.324 C 415.27 385.906 411.688 382.324 407.27 382.324 C 402.852 382.324 399.27 385.906 399.27 390.324 L 399.27 418.324 C 399.27 422.742 402.852 426.324 407.27 426.324 Z " fill="rgb(0,165,207)"/><path d=" M 407.27 460.002 C 411.688 460.002 415.27 456.42 415.27 452.002 L 415.27 448.324 C 415.27 443.906 411.688 440.324 407.27 440.324 C 402.852 440.324 399.27 443.906 399.27 448.324 L 399.27 452.002 C 399.27 456.42 402.852 460.002 407.27 460.002 Z " fill="rgb(0,165,207)"/><path d=" M 255.922 210.138 C 255.922 210.138 256.002 210.14 256 210.14 C 300.474 210.14 336.704 173.958 336.704 129.436 C 336.704 87.636 304.758 53.162 264 49.132 L 264 10.224 C 264 5.806 260.418 2.224 256 2.224 C 251.582 2.224 248 5.806 248 10.224 L 248 49.132 C 207.242 53.162 175.296 87.636 175.296 129.436 C 175.296 173.91 211.458 210.096 255.922 210.138 L 255.922 210.138 Z  M 256 69.206 C 262.874 76.882 268.292 86.426 271.932 97.112 L 240.066 97.112 C 243.708 86.426 249.126 76.882 256 69.206 L 256 69.206 Z  M 275.884 113.112 C 277.658 124.032 277.724 134.814 276.07 145.76 L 235.932 145.76 C 234.28 134.822 234.342 124.04 236.118 113.112 L 275.884 113.112 Z  M 318.614 145.76 L 292.21 145.76 C 293.604 135.152 293.67 124.424 292.074 113.112 L 318.614 113.112 C 321.39 123.75 321.412 135.036 318.614 145.76 Z  M 256 190.776 C 248.89 182.836 243.352 172.89 239.712 161.76 L 272.288 161.76 C 268.648 172.89 263.112 182.836 256 190.776 Z  M 219.79 145.76 L 193.386 145.76 C 190.634 135.214 190.564 123.928 193.386 113.112 L 219.926 113.112 C 218.338 124.362 218.388 135.096 219.79 145.76 Z  M 199.986 161.76 L 223.04 161.76 C 225.994 172.41 230.414 182.312 236.104 190.996 C 220.77 186.028 207.934 175.482 199.986 161.76 Z  M 275.898 190.996 C 281.588 182.312 286.006 172.41 288.96 161.76 L 312.014 161.76 C 304.066 175.482 291.232 186.028 275.898 190.996 Z  M 312.014 97.112 L 288.658 97.112 C 285.544 86.31 280.92 76.294 274.986 67.58 C 290.722 72.418 303.906 83.118 312.014 97.112 Z  M 237.016 67.58 C 231.08 76.294 226.458 86.31 223.344 97.112 L 199.986 97.112 C 208.094 83.118 221.278 72.418 237.016 67.58 Z " fill="rgb(0,0,0)"/><path d=" M 327.06 38.838 L 339.674 38.838 L 339.674 51.452 C 339.674 55.87 343.256 59.452 347.674 59.452 C 352.092 59.452 355.674 55.87 355.674 51.452 L 355.674 38.838 L 368.288 38.838 C 372.706 38.838 376.288 35.256 376.288 30.838 C 376.288 26.42 372.706 22.838 368.288 22.838 L 355.674 22.838 L 355.674 10.224 C 355.674 5.806 352.092 2.224 347.674 2.224 C 343.256 2.224 339.674 5.806 339.674 10.224 L 339.674 22.838 L 327.06 22.838 C 322.642 22.838 319.06 26.42 319.06 30.838 C 319.06 35.256 322.642 38.838 327.06 38.838 Z " fill="rgb(0,0,0)"/><path d=" M 94 100.042 L 106.614 100.042 L 106.614 112.656 C 106.614 117.074 110.196 120.656 114.614 120.656 C 119.032 120.656 122.614 117.074 122.614 112.656 L 122.614 100.042 L 135.228 100.042 C 139.646 100.042 143.228 96.46 143.228 92.042 C 143.228 87.624 139.646 84.042 135.228 84.042 L 122.614 84.042 L 122.614 71.428 C 122.614 67.01 119.032 63.428 114.614 63.428 C 110.196 63.428 106.614 67.01 106.614 71.428 L 106.614 84.042 L 94 84.042 C 89.582 84.042 86 87.624 86 92.042 C 86 96.46 89.582 100.042 94 100.042 Z " fill="rgb(0,0,0)"/><path d=" M 368.72 141.546 C 364.302 141.546 360.72 145.128 360.72 149.546 C 360.72 153.964 364.302 157.546 368.72 157.546 L 381.334 157.546 L 381.334 170.16 C 381.334 174.578 384.916 178.16 389.334 178.16 C 393.752 178.16 397.334 174.578 397.334 170.16 L 397.334 157.546 L 409.948 157.546 C 414.366 157.546 417.948 153.964 417.948 149.546 C 417.948 145.128 414.366 141.546 409.948 141.546 L 397.334 141.546 L 397.334 128.932 C 397.334 124.514 393.752 120.932 389.334 120.932 C 384.916 120.932 381.334 124.514 381.334 128.932 L 381.334 141.546 L 368.72 141.546 Z " fill="rgb(0,0,0)"/></g></g></svg>