<?xml version="1.0" encoding="UTF-8" standalone="no"?><!-- Generator: Gravit.io --><svg xmlns="http://www.w3.org/2000/svg" xmlns:xlink="http://www.w3.org/1999/xlink" style="isolation:isolate" viewBox="0 0 512 512" width="512pt" height="512pt"><defs><clipPath id="_clipPath_nQcyucBGr4eXMwjNiJM86TIpN4ak99K6"><rect width="512" height="512"/></clipPath></defs><g clip-path="url(#_clipPath_nQcyucBGr4eXMwjNiJM86TIpN4ak99K6)"><rect width="512" height="512" style="fill:rgb(235,251,255)"/><g><path d=" M 512 482 L 512 512 L 343.898 512 L 301 477.5 L 307.898 512 L 0 512 L 0 482 C 22.5 482 44.801 469 56.199 449.801 L 100 376.898 C 117.102 348.699 148 331 181 331 L 205.301 331 L 235.301 391 L 280.602 391 L 326.5 352.598 L 334.898 370.301 C 365.801 437.5 434.301 482 508.398 482 L 512 482 Z " fill="rgb(3,48,94)"/><path d=" M 512 482 L 512 512 L 343.898 512 L 301 477.5 L 307.898 512 L 256 512 L 256 391 L 280.602 391 L 326.5 352.598 L 334.898 370.301 C 365.801 437.5 434.301 482 508.398 482 L 512 482 Z " fill="rgb(0,35,71)"/><path d=" M 202.211 451 L 136 451 L 136 421 L 189.789 421 L 215.395 395.395 L 236.605 416.605 L 202.211 451 Z " fill="rgb(4,66,128)"/><path d=" M 301 406 L 271 406 L 271 455.539 L 307.973 512 L 344.027 512 L 301 446.461 L 301 406 Z " fill="rgb(4,66,128)"/><g><path d=" M 138.887 239.168 L 117.676 217.957 C 139.164 196.484 151 167.918 151 137.523 L 151 90 L 181 90 L 181 137.523 C 181 175.934 166.043 212.023 138.887 239.168 Z " fill="rgb(253,191,0)"/><path d=" M 93.52 324.32 L 64.793 281.223 C 42.719 248.117 47.113 203.676 75.254 175.535 C 85.402 165.387 91 151.879 91 137.523 L 91 90 L 121 90 L 121 137.523 C 121 159.891 112.285 180.926 96.465 196.746 C 78.402 214.809 75.574 243.328 89.754 264.586 L 118.48 307.68 L 93.52 324.32 Z " fill="rgb(253,191,0)"/><path d=" M 181 151 C 174.102 151 167.348 149.828 160.934 147.527 L 171.07 119.285 C 189.422 125.938 210.984 109.949 211 90 C 211 73.461 197.539 60 181 60 L 169.797 60.559 L 164.168 50.199 C 159.965 38.113 148.641 30 136 30 C 123.359 30 112.035 38.113 107.832 50.199 L 104.141 60.789 L 92.934 60.25 C 92.758 60.25 92.598 60.25 92.438 60.25 C 74.215 60.25 61 73.609 61 90 C 60.984 109.965 82.445 125.949 100.934 119.285 L 111.07 147.527 C 104.652 149.828 97.898 151 91 151 C 57.91 151 31 123.09 31 90 C 31 59.281 54.203 33.883 83.996 30.41 C 94.516 11.863 114.277 0 136 0 C 157.723 0 177.484 11.863 188.004 30.41 C 217.797 33.883 241 59.281 241 90 C 241 123.09 214.09 151 181 151 Z " fill="rgb(253,191,0)"/></g><path d=" M 466 136 C 441.098 111.398 392.5 117.699 335.801 152.801 L 207.102 281.5 C 193.395 303.488 186.656 320.027 182.957 331 L 216.699 421 L 291.102 421 L 295.301 417.699 C 361.494 349.638 366.004 344.847 391.602 337.598 C 427 302.199 454.602 262.898 469.301 227.199 C 485.801 187 484.602 154.898 466 136 L 466 136 Z " fill="rgb(106,195,112)"/><path d=" M 469.301 227.199 C 454.602 262.898 427 302.199 391.602 337.598 C 368.327 344.098 363.837 348.909 295.301 417.699 L 291.102 421 L 256 421 L 256 232.598 L 335.801 152.801 C 392.5 117.699 441.098 111.398 466 136 C 484.602 154.898 485.801 187 469.301 227.199 L 469.301 227.199 Z " fill="rgb(122,229,130)"/><path d=" M 391.602 189.098 L 370.602 167.801 C 350.801 148 323.5 138.102 296.203 138.102 C 282.402 138.102 268.602 140.801 256 145.898 C 243.402 150.699 231.699 158.199 222.102 167.801 C 202.301 187.598 191.203 213.996 191.203 242.199 C 191.203 270.098 202.301 296.496 222.102 316.301 L 243.102 337.598 C 246.699 341.199 251.203 343.598 256 344.5 C 258.402 345.098 260.801 345.398 263.5 345.398 C 287.801 345.398 321.402 322.898 349.301 294.996 C 386.199 258.102 413.801 211 391.602 189.098 L 391.602 189.098 Z " fill="rgb(2,189,236)"/><path d=" M 263.5 345.398 C 260.801 345.398 258.402 345.098 256 344.5 L 256 145.898 C 268.598 140.801 282.398 138.102 296.199 138.102 C 323.5 138.102 350.801 148 370.602 167.801 L 391.602 189.102 C 413.801 211 386.199 258.102 349.301 295 C 321.398 322.898 287.801 345.398 263.5 345.398 L 263.5 345.398 Z " fill="rgb(0,165,207)"/></g><path d=" M 340.395 381.492 C 358.012 368.781 375.23 354.051 391.719 337.563 C 427.082 302.195 454.688 262.977 469.449 227.133 C 485.926 187.113 484.688 154.762 465.965 136.035 C 442.313 112.387 396.875 117.078 343.43 148.289 C 304.078 128.539 254.809 135.059 222.012 167.855 C 189.219 200.648 182.699 249.91 202.441 289.258 C 193.965 303.754 187.391 317.73 182.797 331 L 181 331 C 148.004 331 116.961 348.574 99.984 376.871 L 56.289 449.695 C 44.516 469.32 22.422 482 0 482 L 0 512 L 512 512 L 512 482 L 508.395 482 C 438.254 482 373.613 442.934 340.395 381.492 L 340.395 381.492 Z  M 243.227 189.07 C 272.469 159.824 320.047 159.824 349.293 189.07 L 369.605 209.383 C 370.168 216.188 359.785 242.215 328.078 273.922 C 296.371 305.629 270.336 316.016 263.539 315.449 L 243.227 295.137 C 213.984 265.895 213.984 218.312 243.227 189.07 L 243.227 189.07 Z  M 222.012 316.348 L 243.227 337.563 C 256.43 350.766 277.41 345.117 294.18 336.73 C 311.609 328.016 331.184 313.242 349.289 295.133 C 386.246 258.18 413.699 211.051 391.719 189.07 C 391.719 189.07 370.418 167.773 370.375 167.73 C 404.227 150.418 433.422 145.922 444.75 157.25 C 454.078 166.578 452.941 188.43 441.707 215.711 C 428.422 247.977 403.133 283.719 370.504 316.348 C 348.816 338.039 342.504 341.824 280.555 391 L 235.27 391 L 210.762 341.98 C 213.52 333.828 217.258 325.156 221.867 316.199 C 221.914 316.25 221.965 316.301 222.012 316.348 L 222.012 316.348 Z  M 82.016 465.129 L 125.711 392.305 C 137.297 372.996 158.48 361 181 361 L 186.73 361 L 207.746 403.039 L 189.785 421 L 136 421 L 136 451 L 202.215 451 L 232.215 421 L 271 421 L 271 455.461 L 288.309 482 L 69.059 482 C 73.98 476.895 78.348 471.246 82.016 465.129 Z  M 324.125 482 L 301 446.539 L 301 413.012 L 316.418 400.121 C 336.039 434.535 364.309 462.59 397.652 482 L 324.125 482 Z " fill="rgb(0,0,0)"/><path d=" M 151 90 L 151 137.523 C 151 167.914 139.164 196.477 117.676 217.953 L 138.883 239.172 C 162.844 215.227 177.301 184.309 180.375 150.984 C 180.582 150.988 180.789 151 181 151 C 214.426 151 241 122.887 241 90 C 241 59.277 217.797 33.879 187.992 30.402 C 177.477 11.867 157.723 0 136 0 C 114.277 0 94.523 11.867 84.008 30.406 C 54.203 33.879 31 59.281 31 90 C 31 122.254 56.578 150.027 89.309 150.957 C 86.945 160.176 82.156 168.629 75.254 175.535 C 47.117 203.668 42.719 248.117 64.789 281.223 L 93.52 324.32 L 118.48 307.68 L 89.75 264.582 C 75.586 243.336 78.41 214.805 96.469 196.746 C 112.285 180.926 121 159.891 121 137.52 L 121 90 L 91 90 L 91 121 C 74.738 121 61 106.805 61 90 C 61 73.773 74.258 59.152 92.797 60.242 L 104.109 60.906 L 107.836 50.203 C 112.047 38.117 123.363 30 136 30 C 148.637 30 159.953 38.117 164.164 50.203 L 167.891 60.906 C 179.289 60.184 178.992 60.352 181.492 60.004 C 197.809 60.27 211 73.621 211 90 C 211 106.805 197.262 121 181 121 L 181 90 L 151 90 Z " fill="rgb(0,0,0)"/></g></svg>