<?xml version="1.0" encoding="UTF-8" standalone="no"?><!-- Generator: Gravit.io --><svg xmlns="http://www.w3.org/2000/svg" xmlns:xlink="http://www.w3.org/1999/xlink" style="isolation:isolate" viewBox="0 0 512 512" width="512pt" height="512pt"><defs><clipPath id="_clipPath_8VQxUVtavEvMcucDgLU9cFmqAVYQ9vIo"><rect width="512" height="512"/></clipPath></defs><g clip-path="url(#_clipPath_8VQxUVtavEvMcucDgLU9cFmqAVYQ9vIo)"><rect x="0" y="0" width="512" height="512" transform="matrix(1,0,0,1,0,0)" fill="rgb(235,251,255)"/><g><path d=" M 336 104 L 304 104 L 268.4 68.4 C 261.194 61.194 249.898 60.09 241.433 65.764 C 235.766 69.562 228.625 70.421 222.219 68.077 C 204.006 61.412 168 48 168 48 L 200 24 L 222.458 35.229 C 228.465 38.232 235.535 38.232 241.542 35.229 L 249.468 31.266 C 258.053 26.974 268.447 28.942 274.868 36.076 L 336 104 Z " fill="rgb(105,191,111)"/><path d=" M 192.238 408 L 216.238 416 L 273.775 279.351 C 277.758 269.891 276.245 259.009 269.833 250.994 L 216.238 184 L 109.493 128 L 222.866 272 L 192.238 408 Z " fill="rgb(0,165,207)"/><path d=" M 184.238 400 L 179.738 406.748 C 172.239 417.997 168.238 431.214 168.238 444.734 L 168.238 456 L 168.654 462 L 272.238 462 L 272.238 445.623 C 272.238 432.71 263.975 421.246 251.725 417.162 L 224.238 408 L 184.238 400 Z " fill="rgb(0,35,71)"/><path d=" M 437.53 137.38 L 432.24 144 L 432.24 144.01 L 424.24 192 L 400.24 176 C 384.871 186.245 366.062 189.964 347.95 186.34 L 336 184 L 336 104 L 364.24 76 L 366.47 73.77 C 366.58 73.66 366.68 73.56 366.79 73.46 C 384.82 55.76 413.516 55.167 432.263 72.106 C 451.009 89.045 453.318 117.654 437.53 137.38 L 437.53 137.38 Z " fill="rgb(168,168,168)"/><path d=" M 392.24 104 L 368.24 128 L 342.79 97.45 L 366.47 73.77 C 366.58 73.66 366.68 73.56 366.79 73.46 L 392.24 104 Z " fill="rgb(0,165,207)"/><path d=" M 432.24 144 L 400.24 176 L 379.44 160.4 C 372.391 155.111 368.241 146.813 368.24 138 L 368.24 128 L 392.24 104 L 432.24 144 Z " fill="rgb(184,234,238)"/><path d=" M 432.13 143.89 L 405.92 170.09 L 385.12 154.49 C 378.071 149.201 373.921 140.903 373.92 132.09 L 373.92 122.32 L 392.24 104 L 432.13 143.89 Z " fill="rgb(235,251,255)"/><path d=" M 109.493 128 C 104.236 135.361 100.825 143.879 99.548 152.834 C 97.429 167.667 101.289 182.734 110.279 194.721 L 144.238 240 L 184.238 288 L 152.238 400 L 152.29 404.01 L 192.238 408 C 192.238 401.319 225.72 305.353 236.756 273.9 C 238.999 267.509 238.849 260.521 236.332 254.233 L 208.238 184 L 109.493 128 Z " fill="rgb(0,165,207)"/><path d=" M 208.238 184 L 336 184 L 336 104 L 285.158 94.422 C 234.871 84.994 182.953 89.727 135.2 108.094 C 124.865 112.065 115.925 118.988 109.493 128 L 208.238 184 Z " fill="rgb(122,229,130)"/><path d=" M 152.238 400 L 147.738 406.748 C 140.239 417.997 136.238 431.214 136.238 444.734 L 136.238 456 L 136.897 461 L 240.317 461.286 L 240.238 456 L 240.238 445.623 C 240.238 432.71 231.975 421.246 219.725 417.162 L 192.238 408 L 152.238 400 Z " fill="rgb(0,35,71)"/><circle vector-effect="non-scaling-stroke" cx="400" cy="48" r="24" fill="rgb(105,191,111)"/><path d=" M 437.53 137.38 L 432.24 144 L 364.24 76 L 366.47 73.77 C 366.58 73.66 366.68 73.56 366.79 73.46 C 384.82 55.76 413.516 55.167 432.263 72.106 C 451.009 89.045 453.318 117.654 437.53 137.38 L 437.53 137.38 Z " fill="rgb(122,229,130)"/><path d=" M 31.994 64 C 29.222 63.998 26.648 62.561 25.192 60.203 C 23.736 57.844 23.604 54.899 24.845 52.42 L 40.845 20.42 C 42.841 16.505 47.62 14.933 51.55 16.899 C 55.48 18.864 57.09 23.631 55.155 27.576 L 39.155 59.576 C 37.799 62.289 35.027 64.002 31.994 64 Z " fill="rgb(224,129,34)"/><path d=" M 416 488 L 40 488 C 31.163 488 24 480.837 24 472 C 24 463.163 31.163 456 40 456 L 416 456 C 438.091 456 456 438.091 456 416 C 456 407.163 463.163 400 472 400 C 480.837 400 488 407.163 488 416 C 488 455.765 455.765 488 416 488 Z " fill="rgb(0,35,71)"/><g><path d=" M 128 368 L 112 368 C 107.582 368 104 364.418 104 360 C 104 355.582 107.582 352 112 352 L 128 352 C 132.418 352 136 355.582 136 360 C 136 364.418 132.418 368 128 368 Z " fill="rgb(184,234,238)"/><path d=" M 80 368 L 24 368 C 19.582 368 16 364.418 16 360 C 16 355.582 19.582 352 24 352 L 80 352 C 84.418 352 88 355.582 88 360 C 88 364.418 84.418 368 80 368 Z " fill="rgb(184,234,238)"/><path d=" M 136 312 L 88 312 C 83.582 312 80 308.418 80 304 C 80 299.582 83.582 296 88 296 L 136 296 C 140.418 296 144 299.582 144 304 C 144 308.418 140.418 312 136 312 Z " fill="rgb(184,234,238)"/><path d=" M 56 312 L 24 312 C 19.582 312 16 308.418 16 304 C 16 299.582 19.582 296 24 296 L 56 296 C 60.418 296 64 299.582 64 304 C 64 308.418 60.418 312 56 312 Z " fill="rgb(184,234,238)"/><path d=" M 104 264 L 96 264 C 91.582 264 88 260.418 88 256 C 88 251.582 91.582 248 96 248 L 104 248 C 108.418 248 112 251.582 112 256 C 112 260.418 108.418 264 104 264 Z " fill="rgb(184,234,238)"/><path d=" M 64 264 L 24 264 C 19.582 264 16 260.418 16 256 C 16 251.582 19.582 248 24 248 L 64 248 C 68.418 248 72 251.582 72 256 C 72 260.418 68.418 264 64 264 Z " fill="rgb(184,234,238)"/></g><path d=" M 365.91 240 C 364.492 239.998 363.1 239.619 361.878 238.9 L 19.961 38.9 C 16.318 36.595 15.157 31.818 17.335 28.098 C 19.512 24.378 24.246 23.052 28.039 25.1 L 369.957 225.1 C 373.071 226.927 374.575 230.613 373.629 234.097 C 372.683 237.581 369.52 239.999 365.91 240 L 365.91 240 Z " fill="rgb(253,146,38)"/><path d=" M 293.119 221.7 L 280.238 232 L 328 232 L 328 264 L 248.754 264 C 238.633 263.999 229.381 258.281 224.854 249.228 C 219.71 238.94 221.726 226.514 229.86 218.38 L 256.121 192.119 L 293.119 221.7 Z " fill="rgb(105,191,111)"/><path d=" M 328 232 L 344.238 232 L 360.238 224 L 376.238 232 L 392.238 232 L 392.238 254 C 392.238 263.941 384.179 272 374.238 272 L 352.238 272 L 336.238 264 L 328 264 L 328 232 Z " fill="rgb(0,35,71)"/><path d=" M 304 96 L 336 104 L 336 184 L 304 184 L 304 96 Z " fill="rgb(105,191,111)"/><path d=" M 256.119 192.119 L 264.238 184 L 264.238 164 C 264.238 148.536 276.774 136 292.238 136 C 307.702 136 320.238 148.536 320.238 164 L 320.238 177.891 C 320.238 191.865 313.886 205.081 302.974 213.811 L 293.119 221.695 L 256.119 192.119 Z " fill="rgb(105,191,111)"/><path d=" M 472 392 C 458.752 392.015 448.015 402.752 448 416 C 447.98 433.665 433.665 447.98 416 448 L 280.24 448 L 280.24 445.62 C 280.252 429.261 269.782 414.734 254.259 409.57 L 230.9 401.788 L 281.141 282.46 C 282.542 279.126 283.432 275.6 283.782 272 L 334.35 272 L 348.661 279.155 C 349.771 279.711 350.996 280 352.238 280 L 374.238 280 C 388.591 279.984 400.222 268.353 400.238 254 L 400.238 232 C 400.238 227.582 396.656 224 392.238 224 L 378.127 224 L 363.816 216.845 C 361.564 215.719 358.913 215.719 356.661 216.845 L 356.225 217.063 L 324.237 198.349 C 325.078 196.279 325.789 194.159 326.365 192 L 335.446 192 L 346.385 194.188 C 364.741 197.913 383.826 194.826 400.072 185.504 L 419.8 198.656 C 422.059 200.161 424.927 200.419 427.417 199.34 C 429.908 198.261 431.682 195.992 432.128 193.315 L 439.786 147.371 L 443.78 142.378 C 453.756 129.926 457.916 113.795 455.204 98.071 C 452.493 82.348 443.171 68.541 429.6 60.15 C 435.112 46.744 430.926 31.308 419.395 22.525 C 407.865 13.741 391.871 13.805 380.411 22.68 C 368.951 31.555 364.888 47.025 370.507 60.386 C 367.124 62.518 363.98 65.009 361.13 67.815 C 361.108 67.837 361.083 67.858 361.061 67.88 C 360.98 67.961 360.895 68.035 360.814 68.116 L 336.422 92.506 L 280.822 30.725 C 271.98 20.94 257.706 18.237 245.898 24.111 L 237.971 28.074 C 234.214 29.941 229.8 29.941 226.043 28.074 L 203.578 16.845 C 200.868 15.49 197.624 15.782 195.2 17.6 L 163.2 41.6 C 160.858 43.355 159.661 46.249 160.08 49.146 C 160.498 52.043 162.465 54.48 165.208 55.5 C 165.568 55.634 201.443 69 219.47 75.592 C 228.28 78.801 238.091 77.62 245.888 72.412 C 251.182 68.878 258.234 69.567 262.743 74.06 L 273.043 84.36 C 231.024 78.605 188.251 82.301 147.843 95.18 L 49.98 37.929 L 55.155 27.578 C 57.09 23.633 55.48 18.866 51.55 16.901 C 47.62 14.935 42.841 16.507 40.845 20.422 L 36.139 29.833 L 28.04 25.1 C 24.226 22.869 19.326 24.151 17.095 27.965 C 14.864 31.779 16.146 36.679 19.96 38.91 L 28.969 44.18 L 24.845 52.427 C 23.54 54.987 23.708 58.049 25.284 60.451 C 26.861 62.853 29.604 64.225 32.472 64.045 C 35.339 63.866 37.89 62.163 39.155 59.583 L 42.809 52.276 L 128.357 102.317 C 118.216 107.005 109.471 114.254 102.984 123.35 L 102.984 123.357 C 86.661 146.23 87.025 177.04 103.884 199.521 L 175.39 289.871 L 144.892 396.6 L 141.083 402.314 C 132.694 414.871 128.224 429.636 128.238 444.737 L 128.238 448 L 40 448 C 26.745 448 16 458.745 16 472 C 16 485.255 26.745 496 40 496 L 416 496 C 460.162 495.95 495.95 460.162 496 416 C 495.985 402.752 485.248 392.015 472 392 L 472 392 Z  M 264.24 445.62 L 264.24 448 L 248.24 448 L 248.24 445.623 C 248.247 436.856 245.218 428.358 239.667 421.572 L 249.199 424.749 C 258.186 427.739 264.247 436.149 264.24 445.62 Z  M 266.4 276.246 L 212.608 404.018 L 212.591 404.059 L 211.745 406.069 L 201.707 402.723 C 208.834 377.953 236.021 300.157 244.307 276.552 C 244.842 275.013 245.27 273.439 245.59 271.842 C 246.635 271.935 247.69 272 248.753 272 L 267.653 272 C 267.394 273.457 266.974 274.881 266.4 276.246 L 266.4 276.246 Z  M 312 112 L 328 112 L 328 159.916 C 326.779 149.312 320.919 139.794 312 133.93 L 312 112 Z  M 366.247 85.305 L 381.417 103.505 L 368.778 116.144 L 353.611 97.941 L 366.247 85.305 Z  M 399.488 165.437 L 384.238 154 C 379.214 150.213 376.254 144.291 376.238 138 L 376.238 131.315 L 392.238 115.315 L 420.925 144 L 399.488 165.437 Z  M 312.238 164 L 312.238 177.891 C 312.247 184.705 310.416 191.396 306.938 197.256 C 306.901 197.316 306.859 197.37 306.824 197.431 C 306.789 197.492 306.768 197.542 306.737 197.597 C 304.423 201.407 301.457 204.78 297.976 207.564 L 293.118 211.45 L 268.108 191.442 L 269.871 189.68 C 271.389 188.18 272.242 186.134 272.24 184 C 272.24 183.987 272.24 183.974 272.24 183.961 L 272.24 164 C 272.24 152.954 281.194 144 292.24 144 C 303.286 144 312.24 152.954 312.24 164 L 312.238 164 Z  M 232.788 204.137 L 223.956 192 L 244.925 192 L 232.788 204.137 Z  M 235.515 224.037 L 256.726 202.826 L 280.313 221.7 L 275.241 225.758 C 272.588 227.881 271.565 231.448 272.69 234.654 C 273.815 237.86 276.843 240.006 280.241 240.005 L 320 240.005 L 320 256.005 C 320 256.005 243.722 255.485 241.46 254.533 C 241.334 254.477 241.208 254.424 241.08 254.374 C 235.467 251.846 231.453 246.723 230.342 240.668 C 229.231 234.612 231.165 228.398 235.515 224.042 L 235.515 224.037 Z  M 372.661 239.155 C 373.771 239.711 374.996 240 376.238 240 L 384.238 240 L 384.238 254 C 384.232 259.52 379.758 263.994 374.238 264 L 354.127 264 L 339.816 256.845 C 338.705 256.289 337.48 256 336.238 256 L 336 256 L 336 240 L 344.238 240 C 345.48 240 346.705 239.711 347.816 239.155 L 360.238 232.944 L 372.661 239.155 Z  M 336.4 224 L 304 224 Q 304 223.632 303.965 223.267 L 307.977 220.058 C 310.933 217.688 313.634 215.016 316.036 212.085 L 336.4 224 Z  M 349.526 178.5 L 344.243 177.443 L 344.243 111.69 L 360.243 130.89 L 360.243 138 C 360.27 149.325 365.599 159.984 374.643 166.8 L 385.454 174.909 C 374.111 179.694 361.588 180.946 349.523 178.5 L 349.526 178.5 Z  M 418.384 178.481 L 412.798 174.758 L 420.246 167.309 L 418.384 178.481 Z  M 431.57 132.016 L 429.918 130.365 L 429.9 130.344 L 398.154 98.6 L 378.092 74.525 C 394.316 63.641 416.043 66.158 429.349 80.463 C 442.655 94.768 443.595 116.62 431.567 132.015 L 431.57 132.016 Z  M 384 48 C 383.978 41.56 387.819 35.735 393.746 33.218 C 399.674 30.701 406.532 31.983 411.151 36.471 C 415.769 40.959 417.246 47.778 414.9 53.775 C 405.15 51.136 394.868 51.175 385.138 53.89 C 384.39 52.016 384.004 50.018 384 48 Z  M 236.979 59.118 C 233.434 61.485 228.974 62.022 224.968 60.564 C 214.083 56.581 196.66 50.12 184.521 45.609 L 200.845 33.367 L 218.88 42.384 C 227.144 46.492 236.856 46.492 245.12 42.384 L 253.046 38.421 C 258.414 35.751 264.902 36.98 268.922 41.428 L 318.037 96 L 307.314 96 L 302.187 90.873 L 302.174 90.86 L 274.057 62.743 C 264.138 52.859 248.625 51.342 236.979 59.118 L 236.979 59.118 Z  M 283.684 102.283 L 292.653 103.967 L 296 107.313 L 296 128.2 C 276.789 126.182 259.41 139.686 256.618 158.8 L 166.89 106.316 C 205.055 96.425 244.928 95.048 283.684 102.283 L 283.684 102.283 Z  M 125.684 122.555 C 129.446 119.63 133.615 117.272 138.06 115.555 C 140.705 114.54 143.374 113.58 146.038 112.655 L 254.328 176 L 210.351 176 L 153.28 143.636 L 121.891 125.836 C 123.097 124.677 124.362 123.582 125.682 122.555 L 125.684 122.555 Z  M 190.384 282.878 L 116.68 189.92 C 105.569 175.113 103.861 155.27 112.28 138.782 L 139.371 154.145 L 202.785 190.106 L 221.485 215.806 C 215.399 223.535 212.875 233.481 214.539 243.176 C 216.203 252.872 221.899 261.408 230.213 266.665 C 230.058 268.227 229.719 269.764 229.202 271.246 C 220.845 295.046 193.353 373.728 186.224 398.636 L 162.307 393.853 L 191.933 290.2 C 192.661 287.654 192.082 284.912 190.386 282.878 L 190.384 282.878 Z  M 144.238 444.734 C 144.227 432.792 147.764 421.115 154.4 411.186 L 155.927 408.896 L 178.776 413.465 C 178.839 413.479 178.902 413.491 178.966 413.503 L 190.185 415.747 L 217.199 424.747 C 226.188 427.735 232.251 436.146 232.242 445.619 L 232.242 448 L 144.242 448 L 144.238 444.734 Z  M 416 480 L 40 480 C 35.582 480 32 476.418 32 472 C 32 467.582 35.582 464 40 464 L 416 464 C 442.497 463.97 463.97 442.497 464 416 C 464 411.582 467.582 408 472 408 C 476.418 408 480 411.582 480 416 C 479.96 451.33 451.33 479.96 416 480 L 416 480 Z " fill="rgb(0,0,0)"/><path d=" M 112 352 C 107.582 352 104 355.582 104 360 C 104 364.418 107.582 368 112 368 L 128 368 C 132.418 368 136 364.418 136 360 C 136 355.582 132.418 352 128 352 L 112 352 Z " fill="rgb(0,0,0)"/><path d=" M 24 352 C 19.582 352 16 355.582 16 360 C 16 364.418 19.582 368 24 368 L 80 368 C 84.418 368 88 364.418 88 360 C 88 355.582 84.418 352 80 352 L 24 352 Z " fill="rgb(0,0,0)"/><path d=" M 80 304 C 80 308.418 83.582 312 88 312 L 136 312 C 140.418 312 144 308.418 144 304 C 144 299.582 140.418 296 136 296 L 88 296 C 83.582 296 80 299.582 80 304 Z " fill="rgb(0,0,0)"/><path d=" M 24 312 L 56 312 C 60.418 312 64 308.418 64 304 C 64 299.582 60.418 296 56 296 L 24 296 C 19.582 296 16 299.582 16 304 C 16 308.418 19.582 312 24 312 Z " fill="rgb(0,0,0)"/><path d=" M 104 264 C 108.418 264 112 260.418 112 256 C 112 251.582 108.418 248 104 248 L 96 248 C 91.582 248 88 251.582 88 256 C 88 260.418 91.582 264 96 264 L 104 264 Z " fill="rgb(0,0,0)"/><path d=" M 64 248 L 24 248 C 19.582 248 16 251.582 16 256 C 16 260.418 19.582 264 24 264 L 64 264 C 68.418 264 72 260.418 72 256 C 72 251.582 68.418 248 64 248 Z " fill="rgb(0,0,0)"/></g></g></svg>