<?xml version="1.0" encoding="UTF-8" standalone="no"?><!-- Generator: Gravit.io --><svg xmlns="http://www.w3.org/2000/svg" xmlns:xlink="http://www.w3.org/1999/xlink" style="isolation:isolate" viewBox="0 0 1020 640" width="1020pt" height="640pt"><defs><clipPath id="_clipPath_GBuSLeeFjKcMjvgbvapvIhlacALjejCc"><rect width="1020" height="640"/></clipPath></defs><g clip-path="url(#_clipPath_GBuSLeeFjKcMjvgbvapvIhlacALjejCc)"><rect width="1020" height="640" style="fill:rgb(0,35,71)"/><g><clipPath id="_clipPath_GxYQZwipDA8SeUQhUzZqmgvE2DFXmqKl"><rect x="358.989" y="98.113" width="512" height="512" transform="matrix(1,0,0,1,0,0)" fill="rgb(255,255,255)"/></clipPath><g clip-path="url(#_clipPath_GxYQZwipDA8SeUQhUzZqmgvE2DFXmqKl)"><g><g><circle vector-effect="non-scaling-stroke" cx="614.9889871273068" cy="354.11252710189774" r="248.5" fill="rgb(0,165,207)"/></g><g><path d=" M 770.454 160.261 C 804.637 202.829 825.102 256.884 825.102 315.726 C 825.102 452.969 713.845 564.226 576.602 564.226 C 517.759 564.226 463.705 543.761 421.137 509.578 C 466.682 566.295 536.589 602.613 614.989 602.613 C 752.232 602.613 863.489 491.356 863.489 354.113 C 863.489 275.713 827.171 205.806 770.454 160.261 L 770.454 160.261 Z " fill="rgb(0,35,71)"/></g><g><path d=" M 712.315 302.206 L 657.997 321.976 L 588.847 283.601 L 548.751 297.833 L 597.457 344.011 L 541.03 364.549 L 517.263 349.788 L 462.629 369.673 L 530.173 422.011 L 729.514 349.457 C 742.562 344.708 749.29 330.28 744.541 317.232 C 739.791 304.185 725.363 297.457 712.315 302.206 L 712.315 302.206 Z " fill="rgb(235,251,255)"/></g><g><path d=" M 588.892 144.628 L 574.304 108.947 C 456.419 128.365 366.489 230.728 366.489 354.113 C 366.489 376.113 369.362 397.44 374.728 417.753 L 388.348 417.753 C 396 417.753 402.996 413.429 406.418 406.585 L 426.986 365.45 C 428.389 362.645 429.119 359.551 429.119 356.415 L 429.119 296.963 C 429.119 286.875 436.561 278.332 446.555 276.95 L 514.608 267.538 C 520.601 266.709 525.907 263.238 529.068 258.079 L 587.42 162.827 C 590.78 157.342 591.327 150.583 588.892 144.628 L 588.892 144.628 Z " fill="rgb(122,229,130)"/></g><g><path d=" M 703.883 122.004 L 703.883 205.924 C 703.883 220.145 711.359 233.319 723.567 240.612 L 766.546 266.288 C 776.188 272.048 782.997 281.561 785.341 292.546 L 793.692 331.69 C 796.301 343.922 793.099 356.673 785.02 366.221 L 740.719 418.577 C 734.546 425.873 731.158 435.12 731.158 444.677 L 731.158 464.022 C 731.158 477.969 738.351 490.93 750.185 498.309 L 794.501 525.942 C 837.232 481.311 863.489 420.78 863.489 354.113 C 863.489 248.196 797.217 157.772 703.883 122.004 L 703.883 122.004 Z " fill="rgb(122,229,130)"/></g><g><path d=" M 770.474 160.286 C 804.645 202.851 825.102 256.895 825.102 315.727 C 825.102 386.862 795.205 451.009 747.3 496.309 C 748.231 497.009 749.185 497.686 750.184 498.309 L 794.5 525.942 C 837.232 481.311 863.489 420.78 863.489 354.113 C 863.489 275.723 827.181 205.827 770.474 160.286 Z " fill="rgb(120,206,126)"/></g><g><path d=" M 614.989 602.613 C 649.495 602.613 682.355 595.575 712.22 582.864 L 685.216 564.135 C 679.637 560.266 675.504 554.65 673.468 548.172 L 669.604 535.877 C 666.991 527.563 660.956 520.759 653.014 517.172 L 645.022 513.563 C 638.05 510.414 632.511 504.767 629.498 497.736 L 623.945 484.779 C 619.125 473.533 608.067 466.241 595.832 466.241 C 584.607 466.241 574.284 472.39 568.938 482.26 L 557.107 504.102 C 553.409 510.93 547.252 516.095 539.885 518.551 L 518.31 525.743 C 512.209 527.777 506.903 531.682 503.149 536.904 L 483.122 564.757 C 521.341 588.734 566.541 602.613 614.989 602.613 Z " fill="rgb(122,229,130)"/></g><g><path d=" M 673.468 548.173 L 672.485 545.044 C 642.98 557.395 610.59 564.227 576.603 564.227 C 547.53 564.227 519.63 559.217 493.7 550.042 L 483.12 564.756 C 521.341 588.734 566.541 602.613 614.989 602.613 C 649.495 602.613 682.355 595.575 712.22 582.864 L 685.216 564.135 C 679.637 560.266 675.504 554.65 673.468 548.173 L 673.468 548.173 Z " fill="rgb(120,206,126)"/></g><g><path d=" M 750.498 339.627 C 754.183 331.725 754.569 322.861 751.588 314.668 C 748.606 306.475 742.611 299.933 734.71 296.249 C 726.808 292.565 717.944 292.177 709.75 295.159 L 658.646 313.76 L 592.487 277.045 C 590.605 276 588.365 275.815 586.339 276.535 L 546.242 290.767 C 543.783 291.64 541.955 293.727 541.414 296.28 C 540.873 298.833 541.697 301.483 543.591 303.278 L 583.497 341.113 L 541.891 356.257 L 521.22 343.42 C 519.264 342.205 516.86 341.958 514.698 342.743 L 460.064 362.628 C 457.498 363.563 455.641 365.818 455.219 368.517 C 454.797 371.216 455.876 373.931 458.035 375.604 L 525.579 427.942 C 526.913 428.976 528.534 429.513 530.174 429.513 C 531.036 429.513 531.904 429.364 532.738 429.061 L 642.094 389.258 C 645.986 387.841 647.993 383.537 646.576 379.645 C 645.159 375.753 640.855 373.746 636.963 375.163 L 531.495 413.551 L 477.968 372.074 L 516.402 358.085 L 537.073 370.922 C 539.03 372.137 541.435 372.385 543.595 371.599 L 600.022 351.061 C 602.463 350.172 604.271 348.083 604.799 345.539 C 605.328 342.995 604.502 340.359 602.616 338.571 L 562.789 300.811 L 588.166 291.803 L 654.357 328.536 C 656.256 329.59 658.518 329.768 660.562 329.026 L 714.879 309.256 C 724.019 305.926 734.163 310.659 737.49 319.8 C 740.817 328.941 736.088 339.085 726.946 342.412 L 669.997 363.14 C 666.105 364.557 664.098 368.861 665.515 372.753 C 666.931 376.646 671.234 378.653 675.128 377.236 L 732.077 356.508 C 740.271 353.523 746.813 347.529 750.498 339.627 L 750.498 339.627 Z " fill="rgb(0,0,0)"/><path d=" M 796.009 173.093 C 747.657 124.742 683.369 98.113 614.989 98.113 C 575.671 98.113 537.946 106.793 502.864 123.911 C 499.141 125.727 497.596 130.218 499.413 133.94 C 501.23 137.662 505.719 139.208 509.442 137.391 C 528.722 127.984 548.857 121.305 569.641 117.359 L 581.95 147.465 C 583.475 151.194 583.129 155.473 581.024 158.908 L 522.672 254.159 C 520.676 257.416 517.361 259.584 513.579 260.107 L 445.526 269.519 C 431.896 271.404 421.618 283.201 421.618 296.961 L 421.618 356.413 C 421.618 358.374 421.154 360.339 420.277 362.094 L 399.71 403.229 C 397.544 407.561 393.19 410.251 388.348 410.251 L 380.606 410.251 C 376.29 392.233 373.989 373.438 373.989 354.113 C 373.989 274.087 413.59 199.461 479.92 154.49 C 483.349 152.166 484.243 147.502 481.919 144.074 C 479.595 140.645 474.93 139.75 471.502 142.074 C 401.05 189.841 358.989 269.107 358.989 354.113 C 358.989 422.493 385.618 486.78 433.969 535.132 C 482.322 583.485 546.609 610.113 614.989 610.113 C 659.618 610.113 703.559 598.454 742.064 576.396 C 745.658 574.337 746.902 569.754 744.843 566.16 C 742.783 562.565 738.201 561.321 734.607 563.38 C 727.602 567.393 720.403 571.036 713.047 574.309 L 689.491 557.972 C 685.301 555.066 682.151 550.787 680.624 545.924 L 676.76 533.628 C 673.509 523.288 665.98 514.798 656.101 510.337 L 648.109 506.728 C 642.834 504.345 638.671 500.102 636.391 494.782 L 630.838 481.824 C 624.827 467.801 611.087 458.741 595.831 458.741 C 581.839 458.741 569.007 466.384 562.342 478.687 L 550.511 500.529 C 547.709 505.702 543.092 509.575 537.511 511.435 L 515.936 518.626 C 508.29 521.175 501.763 525.98 497.058 532.524 L 481.255 554.501 C 435.798 524.066 401.221 478.594 384.709 425.253 L 388.348 425.253 C 398.909 425.253 408.403 419.385 413.126 409.939 L 433.693 368.803 C 435.607 364.976 436.618 360.692 436.618 356.414 L 436.618 296.963 C 436.618 290.653 441.331 285.244 447.581 284.38 L 515.634 274.968 C 523.883 273.827 531.11 269.1 535.462 261.998 L 593.815 166.746 C 598.405 159.253 599.16 149.924 595.835 141.79 L 584.873 114.978 C 594.786 113.751 604.828 113.113 614.989 113.113 C 643.542 113.113 670.945 118.117 696.384 127.272 L 696.384 205.924 C 696.384 222.692 705.326 238.45 719.721 247.05 L 762.7 272.726 C 770.524 277.4 776.103 285.194 778.006 294.109 L 786.357 333.254 C 788.466 343.143 785.827 353.655 779.294 361.375 L 734.993 413.731 C 727.683 422.37 723.658 433.36 723.658 444.676 L 723.658 464.021 C 723.658 480.668 732.092 495.865 746.217 504.672 L 782.559 527.332 C 776.379 533.291 769.86 538.976 762.985 544.334 C 759.717 546.88 759.132 551.592 761.678 554.86 C 763.157 556.758 765.366 557.751 767.599 557.751 C 769.21 557.751 770.834 557.234 772.203 556.167 C 802.274 532.736 827.148 502.378 844.136 468.375 C 861.954 432.708 870.989 394.264 870.989 354.113 C 870.989 285.733 844.36 221.446 796.009 173.093 L 796.009 173.093 Z  M 509.235 541.282 C 512.088 537.315 516.045 534.402 520.679 532.857 L 542.254 525.666 C 551.461 522.597 559.077 516.208 563.699 507.674 L 575.53 485.832 C 579.57 478.374 587.348 473.741 595.83 473.741 C 605.077 473.741 613.406 479.234 617.05 487.733 L 622.603 500.691 C 626.366 509.469 633.23 516.467 641.934 520.399 L 649.926 524.008 C 655.914 526.712 660.479 531.858 662.448 538.126 L 666.312 550.421 C 668.833 558.444 674.029 565.504 680.941 570.298 L 696.363 580.994 C 670.394 590.288 642.836 595.113 614.989 595.113 C 570.919 595.113 529.58 583.212 494 562.471 L 509.235 541.282 Z  M 793.281 516.341 L 754.154 491.944 C 744.452 485.894 738.659 475.456 738.659 464.021 L 738.659 444.676 C 738.659 436.903 741.425 429.354 746.445 423.421 L 790.746 371.065 C 800.255 359.827 804.099 344.523 801.027 330.125 L 792.676 290.98 C 789.906 278.001 781.784 266.654 770.393 259.849 L 727.414 234.173 C 717.526 228.266 711.384 217.441 711.384 205.923 L 711.384 133.255 C 796.424 170.515 855.989 255.482 855.989 354.113 C 855.989 415.033 833.52 472.304 793.281 516.341 L 793.281 516.341 Z " fill="rgb(0,0,0)"/><path d=" M 706.333 447.048 C 706.333 442.906 702.976 439.548 698.833 439.548 L 683.681 439.548 C 679.538 439.548 676.181 442.906 676.181 447.048 C 676.181 451.19 679.538 454.548 683.681 454.548 L 698.833 454.548 C 702.975 454.548 706.333 451.19 706.333 447.048 Z " fill="rgb(0,0,0)"/><path d=" M 663.477 471.873 C 659.334 471.873 655.977 475.231 655.977 479.373 C 655.977 483.515 659.334 486.873 663.477 486.873 L 678.629 486.873 C 682.772 486.873 686.129 483.515 686.129 479.373 C 686.129 475.231 682.772 471.873 678.629 471.873 L 663.477 471.873 Z " fill="rgb(0,0,0)"/></g></g></g><circle vector-effect="non-scaling-stroke" cx="614.9889871273068" cy="354.1125271018976" r="255.99999999999991" fill="none"/><path d=" M 728.559 97.62 L 728.559 97.62 L 728.559 97.62 Q 726.211 99.669 723.383 97.953 L 723.383 97.953 L 723.383 97.953 Q 720.555 96.238 718.868 90.951 L 718.868 90.951 L 718.868 90.951 Q 728.493 82.895 753.379 67.123 L 753.379 67.123 L 753.379 67.123 Q 778.264 51.351 788.404 42.186 L 788.404 42.186 L 788.404 42.186 Q 789.986 40.62 790.406 39.927 L 790.406 39.927 L 790.406 39.927 Q 791.457 38.196 791.088 33.077 L 791.088 33.077 L 790.935 31.248 L 792.076 29.887 L 792.076 29.887 Q 803.567 33.069 815.455 40.282 L 815.455 40.282 L 822.216 45.015 L 822.216 45.015 Q 822.435 47.517 820.957 51.515 L 820.957 51.515 L 820.957 51.515 Q 817.482 61.407 795.423 97.764 L 795.423 97.764 L 795.423 97.764 Q 786.88 111.845 785.803 119.086 L 785.803 119.086 L 785.803 119.086 Q 785.396 121.84 786.319 122.4 L 786.319 122.4 L 786.319 122.4 Q 787.242 122.96 793.375 123.523 L 793.375 123.523 L 795.295 123.74 L 795.083 129.296 L 795.083 129.296 Q 788.106 130.906 781.234 130.131 L 781.234 130.131 L 781.234 130.131 Q 774.361 129.356 769.86 126.625 L 769.86 126.625 L 769.86 126.625 Q 758.202 119.552 769.197 101.432 L 769.197 101.432 L 774.729 92.314 L 774.729 92.314 Q 772.148 89.801 766.031 86.089 L 766.031 86.089 L 766.031 86.089 Q 759.914 82.378 751.942 79.12 L 751.942 79.12 L 751.942 79.12 Q 738.048 89.008 728.559 97.62 Z  M 760.677 73.051 L 779.721 84.605 L 787.96 71.287 L 787.96 71.287 Q 798.604 53.743 800.885 46.6 L 800.885 46.6 L 800.885 46.6 Q 799.961 46.04 799.359 45.991 L 799.359 45.991 L 799.359 45.991 Q 790.736 52.917 784.162 57.377 L 784.162 57.377 L 784.162 57.377 Q 777.588 61.836 770.062 66.823 L 770.062 66.823 L 770.062 66.823 Q 762.536 71.81 760.677 73.051 L 760.677 73.051 L 760.677 73.051 Z  M 792.469 141.317 L 792.469 141.317 L 790.641 139.517 L 790.641 139.517 Q 795.094 134.996 810.434 124.903 L 810.434 124.903 L 810.434 124.903 Q 825.774 114.81 827.479 113.079 L 827.479 113.079 L 827.479 113.079 Q 830.605 109.905 831.417 103.694 L 831.417 103.694 L 831.688 101.687 L 833.015 100.531 L 833.015 100.531 Q 839.63 104.204 851.076 115.476 L 851.076 115.476 L 851.076 115.476 Q 850.716 118.343 846.55 122.766 L 846.55 122.766 L 846.55 122.766 Q 861.265 124.563 867.036 130.247 L 867.036 130.247 L 867.036 130.247 Q 870.498 133.657 870.198 138.098 L 870.198 138.098 L 870.198 138.098 Q 869.898 142.539 866.346 146.146 L 866.346 146.146 L 866.346 146.146 Q 862.793 149.753 851.866 156.424 L 851.866 156.424 L 851.866 156.424 Q 840.939 163.094 837.955 166.124 L 837.955 166.124 L 837.955 166.124 Q 834.971 169.154 835.741 169.911 L 835.741 169.911 L 835.741 169.911 Q 836.318 170.48 841.58 172.062 L 841.58 172.062 L 843.303 172.622 L 841.719 177.694 L 841.719 177.694 Q 840.095 177.611 837.516 177.344 L 837.516 177.344 L 837.516 177.344 Q 834.936 177.077 829.099 175.212 L 829.099 175.212 L 829.099 175.212 Q 823.261 173.348 820.183 170.317 L 820.183 170.317 L 820.183 170.317 Q 813.162 163.401 821.024 155.418 L 821.024 155.418 L 821.024 155.418 Q 824.34 152.052 835.408 145.141 L 835.408 145.141 L 835.408 145.141 Q 846.477 138.231 849.035 135.634 L 849.035 135.634 L 849.035 135.634 Q 851.592 133.037 849.957 131.427 L 849.957 131.427 L 849.957 131.427 Q 847.168 128.68 840.76 127.106 L 840.76 127.106 L 840.76 127.106 Q 838.861 128.457 830.31 133.868 L 830.31 133.868 L 830.31 133.868 Q 812.072 145.654 805.914 151.906 L 805.914 151.906 L 805.914 151.906 Q 801.222 149.937 792.469 141.317 Z  M 834.905 211.301 L 834.905 211.301 L 834.905 211.301 Q 830.251 208.835 828.058 210.165 L 828.058 210.165 L 828.058 210.165 Q 825.865 211.495 827.37 213.977 L 827.37 213.977 L 827.37 213.977 Q 828.876 216.458 833.133 218.139 L 833.133 218.139 L 833.133 218.139 Q 837.389 219.82 843.959 218.676 L 843.959 218.676 L 843.959 218.676 Q 839.559 213.767 834.905 211.301 Z  M 843.512 198.42 L 843.512 198.42 L 843.512 198.42 Q 837.63 188.725 848.249 182.283 L 848.249 182.283 L 848.249 182.283 Q 850.788 180.742 864.307 175.698 L 864.307 175.698 L 864.307 175.698 Q 877.827 170.654 885.906 165.752 L 885.906 165.752 L 885.906 165.752 Q 887.637 164.702 888.858 163.33 L 888.858 163.33 L 888.858 163.33 Q 895.063 168.092 901.645 178.941 L 901.645 178.941 L 901.645 178.941 Q 900.38 180.498 896.455 182.879 L 896.455 182.879 L 896.455 182.879 Q 892.531 185.26 878.641 190.214 L 878.641 190.214 L 878.641 190.214 Q 864.75 195.167 861.172 197.338 L 861.172 197.338 L 861.172 197.338 Q 857.594 199.509 859.415 202.509 L 859.415 202.509 L 859.415 202.509 Q 861.586 206.087 868.245 208.995 L 868.245 208.995 L 868.245 208.995 Q 875.405 205.441 906.941 191.834 L 906.941 191.834 L 906.941 191.834 Q 911.008 194.893 917.38 205.397 L 917.38 205.397 L 918.711 207.59 L 918.711 207.59 Q 908.724 210.648 891.189 218.444 L 891.189 218.444 L 891.189 218.444 Q 873.655 226.24 866.536 228.822 L 866.536 228.822 L 866.536 228.822 Q 852.37 234.101 840.392 232.447 L 840.392 232.447 L 840.392 232.447 Q 828.414 230.792 822.041 220.289 L 822.041 220.289 L 822.041 220.289 Q 819.521 216.134 819.648 211.399 L 819.648 211.399 L 819.648 211.399 Q 819.775 206.663 823.238 204.563 L 823.238 204.563 L 823.238 204.563 Q 827.854 201.762 835.094 205.106 L 835.094 205.106 L 835.094 205.106 Q 842.334 208.451 850.224 216.77 L 850.224 216.77 L 850.224 216.77 Q 855.933 214.728 861.015 212.434 L 861.015 212.434 L 861.015 212.434 Q 848.764 207.077 843.512 198.42 Z  M 881.212 240.657 L 881.212 240.657 L 915.302 231.624 L 915.302 231.624 Q 919.686 230.263 922.885 224.18 L 922.885 224.18 L 924.512 223.957 L 924.512 223.957 Q 925.051 224.78 925.504 225.557 L 925.504 225.557 L 925.504 225.557 Q 925.958 226.335 926.556 227.351 L 926.556 227.351 L 926.556 227.351 Q 927.154 228.367 927.853 229.705 L 927.853 229.705 L 927.853 229.705 Q 928.551 231.043 929.289 232.51 L 929.289 232.51 L 929.289 232.51 Q 930.797 236 931.778 239.159 L 931.778 239.159 L 931.778 239.159 Q 932.759 242.317 930.882 245.374 L 930.882 245.374 L 930.882 245.374 Q 929.004 248.431 923.396 250.173 L 923.396 250.173 L 923.396 250.173 Q 917.787 251.915 906.868 253.398 L 906.868 253.398 L 906.868 253.398 Q 895.949 254.881 890.857 256.463 L 890.857 256.463 L 890.857 256.463 Q 885.764 258.044 886.525 260.494 L 886.525 260.494 L 886.525 260.494 Q 887.766 264.491 894.276 267.699 L 894.276 267.699 L 894.276 267.699 Q 896.379 267.187 907.947 265.291 L 907.947 265.291 L 907.947 265.291 Q 919.515 263.394 924.543 261.833 L 924.543 261.833 L 924.543 261.833 Q 929.571 260.271 932.941 258.376 L 932.941 258.376 L 932.941 258.376 Q 939.763 267.142 942.205 275.007 L 942.205 275.007 L 942.205 275.007 Q 941.566 277.043 935.184 279.025 L 935.184 279.025 L 935.184 279.025 Q 928.802 281.007 916.841 282.319 L 916.841 282.319 L 916.841 282.319 Q 904.879 283.631 899.786 285.213 L 899.786 285.213 L 899.786 285.213 Q 894.694 286.794 895.335 288.857 L 895.335 288.857 L 895.335 288.857 Q 896.856 293.756 905.942 297.296 L 905.942 297.296 L 905.942 297.296 Q 915.028 300.835 920.048 299.7 L 920.048 299.7 L 927.123 287.89 L 927.123 287.89 Q 932.827 286.684 938.02 287.474 L 938.02 287.474 L 938.02 287.474 Q 943.213 288.264 945.619 289.637 L 945.619 289.637 L 947.855 290.922 L 947.855 290.922 Q 949.577 296.466 947.493 300.223 L 947.493 300.223 L 947.493 300.223 Q 945.409 303.98 941.412 305.222 L 941.412 305.222 L 941.412 305.222 Q 931.227 308.385 918.32 306.881 L 918.32 306.881 L 918.32 306.881 Q 905.413 305.376 894.841 299.33 L 894.841 299.33 L 894.841 299.33 Q 884.269 293.284 881.547 284.517 L 881.547 284.517 L 881.547 284.517 Q 880.185 280.133 881.758 276.323 L 881.758 276.323 L 881.758 276.323 Q 883.331 272.512 887.007 270.239 L 887.007 270.239 L 887.007 270.239 Q 875.18 264.018 872.537 255.509 L 872.537 255.509 L 872.537 255.509 Q 870.775 249.836 873.48 246.027 L 873.48 246.027 L 873.48 246.027 Q 876.184 242.219 881.212 240.657 Z  M 980.887 337.697 L 980.887 337.697 L 980.887 337.697 Q 985.342 337.661 987.226 336.836 L 987.226 336.836 L 987.226 336.836 Q 990.954 347.337 991.028 356.652 L 991.028 356.652 L 991.028 356.652 Q 989.823 357.876 984.828 357.916 L 984.828 357.916 L 984.828 357.916 Q 975.918 357.987 943.729 350.682 L 943.729 350.682 L 943.729 350.682 Q 951.78 361.553 951.846 369.788 L 951.846 369.788 L 951.846 369.788 Q 951.886 374.918 948.667 377.576 L 948.667 377.576 L 948.667 377.576 Q 945.448 380.234 940.116 380.276 L 940.116 380.276 L 940.116 380.276 Q 934.784 380.318 922.677 377.309 L 922.677 377.309 L 922.677 377.309 Q 910.57 374.3 906.115 374.336 L 906.115 374.336 L 906.115 374.336 Q 901.661 374.371 901.669 375.451 L 901.669 375.451 L 901.669 375.451 Q 901.678 376.531 904.144 381.101 L 904.144 381.101 L 904.967 382.715 L 900.261 385.182 L 900.261 385.182 Q 899.172 383.976 897.536 381.964 L 897.536 381.964 L 897.536 381.964 Q 895.9 379.952 893.157 374.573 L 893.157 374.573 L 893.157 374.573 Q 890.414 369.195 890.378 364.673 L 890.378 364.673 L 890.378 364.673 Q 890.342 360.15 893.223 357.427 L 893.223 357.427 L 893.223 357.427 Q 896.104 354.704 901.032 354.665 L 901.032 354.665 L 901.032 354.665 Q 905.959 354.626 919.01 357.56 L 919.01 357.56 L 919.01 357.56 Q 932.061 360.494 935.504 360.467 L 935.504 360.467 L 935.504 360.467 Q 938.946 360.44 938.924 357.605 L 938.924 357.605 L 938.924 357.605 Q 938.896 354.095 935.884 348.854 L 935.884 348.854 L 935.884 348.854 Q 903.156 341.688 893.437 341.765 L 893.437 341.765 L 893.437 341.765 Q 891.232 336.112 891.124 322.478 L 891.124 322.478 L 891.124 322.478 Q 893.418 322.325 895.173 322.311 L 895.173 322.311 L 895.173 322.311 Q 900.977 322.265 934.925 330.028 L 934.925 330.028 L 934.925 330.028 Q 968.873 337.792 980.887 337.697 Z  M 913.607 394.001 L 913.607 394.001 L 913.607 394.001 Q 930.11 397.527 937.551 409.54 L 937.551 409.54 L 937.551 409.54 Q 944.993 421.552 942.285 434.226 L 942.285 434.226 L 942.285 434.226 Q 940.621 442.015 935.721 446.214 L 935.721 446.214 L 935.721 446.214 Q 930.82 450.413 924.417 449.045 L 924.417 449.045 L 924.417 449.045 Q 918.014 447.677 914.349 443.511 L 914.349 443.511 L 914.349 443.511 Q 910.683 439.346 909.294 434.218 L 909.294 434.218 L 909.294 434.218 Q 906.676 423.857 907.152 415.814 L 907.152 415.814 L 907.433 412.561 L 907.433 412.561 Q 894.826 410.833 892.851 420.075 L 892.851 420.075 L 892.851 420.075 Q 892.174 423.243 892.997 427.146 L 892.997 427.146 L 892.997 427.146 Q 893.819 431.049 894.981 433.368 L 894.981 433.368 L 896.142 435.687 L 891.24 437.953 L 891.24 437.953 Q 890.013 436.586 888.314 432.91 L 888.314 432.91 L 888.314 432.91 Q 886.615 429.234 885.623 426.123 L 885.623 426.123 L 885.623 426.123 Q 883.034 417.563 884.98 408.454 L 884.98 408.454 L 884.98 408.454 Q 886.927 399.344 894.524 395.446 L 894.524 395.446 L 894.524 395.446 Q 902.121 391.547 913.607 394.001 Z  M 913.93 413.811 L 913.93 413.811 Q 913.68 420.798 917.322 425.717 L 917.322 425.717 L 917.322 425.717 Q 920.965 430.637 928.094 432.16 L 928.094 432.16 L 928.094 432.16 Q 935.223 433.683 936.126 429.459 L 936.126 429.459 L 936.126 429.459 Q 937.197 424.442 929.26 419.916 L 929.26 419.916 L 929.26 419.916 Q 921.323 415.39 913.93 413.811 L 913.93 413.811 L 913.93 413.811 Z  M 876.957 444.485 L 876.957 444.485 L 877.318 443.611 L 877.318 443.611 Q 878.419 443.774 881.975 445.244 L 881.975 445.244 L 881.975 445.244 Q 885.531 446.713 899.735 456.527 L 899.735 456.527 L 899.735 456.527 Q 913.938 466.34 916.184 467.268 L 916.184 467.268 L 916.184 467.268 Q 920.052 468.866 926.112 467.281 L 926.112 467.281 L 928.073 466.776 L 929.644 467.571 L 929.644 467.571 Q 928.731 475.082 922.595 489.929 L 922.595 489.929 L 922.595 489.929 Q 918.733 490.086 912.869 487.663 L 912.869 487.663 L 912.869 487.663 Q 914.547 489.963 916.486 495.877 L 916.486 495.877 L 916.486 495.877 Q 918.424 501.791 916.517 506.407 L 916.517 506.407 L 916.517 506.407 Q 913.732 513.144 902.004 508.298 L 902.004 508.298 L 902.004 508.298 Q 901.514 507.365 900.767 505.814 L 900.767 505.814 L 900.767 505.814 Q 900.02 504.264 899.213 500.206 L 899.213 500.206 L 899.213 500.206 Q 898.407 496.148 899.145 492.947 L 899.145 492.947 L 899.145 492.947 Q 899.197 492.822 903.39 492.218 L 903.39 492.218 L 903.39 492.218 Q 907.584 491.614 907.997 490.616 L 907.997 490.616 L 907.997 490.616 Q 908.163 487.033 906.522 483.579 L 906.522 483.579 L 906.522 483.579 Q 883.067 467.168 875.456 464.023 L 875.456 464.023 L 875.456 464.023 Q 872.711 462.888 871.537 462.549 L 871.537 462.549 L 871.537 462.549 Q 871.595 457.46 876.957 444.485 Z  M 878.733 500.094 L 878.733 500.094 L 878.733 500.094 Q 892.723 509.53 895.138 523.453 L 895.138 523.453 L 895.138 523.453 Q 897.553 537.376 890.307 548.121 L 890.307 548.121 L 890.307 548.121 Q 885.853 554.724 879.739 556.788 L 879.739 556.788 L 879.739 556.788 Q 873.624 558.852 868.196 555.191 L 868.196 555.191 L 868.196 555.191 Q 862.768 551.53 860.924 546.297 L 860.924 546.297 L 860.924 546.297 Q 859.08 541.064 859.707 535.787 L 859.707 535.787 L 859.707 535.787 Q 861.149 525.199 864.596 517.916 L 864.596 517.916 L 866.072 515.003 L 866.072 515.003 Q 855.023 508.691 849.738 516.526 L 849.738 516.526 L 849.738 516.526 Q 847.927 519.212 847.232 523.14 L 847.232 523.14 L 847.232 523.14 Q 846.537 527.067 846.747 529.652 L 846.747 529.652 L 846.958 532.237 L 841.565 532.507 L 841.565 532.507 Q 840.938 530.782 840.735 526.737 L 840.735 526.737 L 840.735 526.737 Q 840.532 522.692 840.774 519.436 L 840.774 519.436 L 840.774 519.436 Q 841.571 510.528 846.779 502.806 L 846.779 502.806 L 846.779 502.806 Q 851.988 495.083 860.492 494.305 L 860.492 494.305 L 860.492 494.305 Q 868.995 493.527 878.733 500.094 Z  M 871.631 518.59 L 871.631 518.59 Q 868.789 524.978 870.33 530.902 L 870.33 530.902 L 870.33 530.902 Q 871.87 536.826 877.914 540.903 L 877.914 540.903 L 877.914 540.903 Q 883.958 544.979 886.374 541.397 L 886.374 541.397 L 886.374 541.397 Q 889.242 537.144 883.571 529.981 L 883.571 529.981 L 883.571 529.981 Q 877.899 522.818 871.631 518.59 L 871.631 518.59 L 871.631 518.59 Z " fill="rgb(122,229,130)"/><path d=" M 118.581 275.613 L 118.581 275.613 L 157.781 276.813 L 178.381 276.413 L 178.381 276.413 Q 178.981 279.413 178.981 284.413 L 178.981 284.413 L 178.981 284.413 Q 178.981 289.413 177.481 291.613 L 177.481 291.613 L 177.481 291.613 Q 175.981 293.813 172.381 293.813 L 172.381 293.813 L 172.381 293.813 Q 168.781 293.813 157.081 292.813 L 157.081 292.813 L 157.081 292.813 Q 145.381 291.813 139.781 291.813 L 139.781 291.813 L 132.581 292.213 L 132.581 292.213 Q 131.781 299.813 122.981 340.813 L 122.981 340.813 L 122.981 340.813 Q 138.181 339.413 148.381 339.413 L 148.381 339.413 L 148.381 339.413 Q 158.581 339.413 164.181 341.013 L 164.181 341.013 L 164.181 341.013 Q 163.781 349.413 160.581 355.413 L 160.581 355.413 L 160.581 355.413 Q 151.981 353.613 140.181 353.613 L 140.181 353.613 L 140.181 353.613 Q 128.381 353.613 120.181 354.813 L 120.181 354.813 L 120.181 354.813 Q 112.781 391.013 112.781 409.813 L 112.781 409.813 L 112.781 413.213 L 112.781 413.213 Q 105.581 417.213 82.381 417.213 L 82.381 417.213 L 80.381 417.213 L 80.381 417.213 Q 80.381 403.613 89.681 360.613 L 89.681 360.613 L 89.681 360.613 Q 98.981 317.613 100.981 298.813 L 100.981 298.813 L 100.981 298.813 Q 100.981 295.613 98.981 291.113 L 98.981 291.113 L 98.981 291.113 Q 96.981 286.613 94.781 283.813 L 94.781 283.813 L 92.781 281.013 L 93.381 278.013 L 93.381 278.013 Q 104.181 275.813 118.581 275.613 Z  M 189.281 419.013 L 189.281 419.013 L 189.281 419.013 Q 182.381 419.013 177.881 414.413 L 177.881 414.413 L 177.881 414.413 Q 173.381 409.813 173.381 401.513 L 173.381 401.513 L 173.381 401.513 Q 173.381 393.213 183.281 348.513 L 183.281 348.513 L 183.281 348.513 Q 193.181 303.813 193.181 284.013 L 193.181 284.013 L 191.981 275.213 L 191.981 275.213 Q 207.581 269.813 221.181 269.813 L 221.181 269.813 L 221.181 269.813 Q 223.181 272.613 223.181 279.613 L 223.181 279.613 L 223.181 279.613 Q 223.181 295.613 213.081 341.513 L 213.081 341.513 L 213.081 341.513 Q 202.981 387.413 202.981 394.913 L 202.981 394.913 L 202.981 394.913 Q 202.981 402.413 204.781 402.413 L 204.781 402.413 L 218.781 397.413 L 222.381 404.413 L 222.381 404.413 Q 215.581 409.813 205.881 414.413 L 205.881 414.413 L 205.881 414.413 Q 196.181 419.013 189.281 419.013 Z  M 254.281 438.213 L 254.281 438.213 L 254.281 438.213 Q 247.581 442.213 247.581 446.013 L 247.581 446.013 L 247.581 446.013 Q 247.581 449.813 251.881 449.813 L 251.881 449.813 L 251.881 449.813 Q 256.181 449.813 261.581 445.713 L 261.581 445.713 L 261.581 445.713 Q 266.981 441.613 270.581 432.413 L 270.581 432.413 L 270.581 432.413 Q 260.981 434.213 254.281 438.213 Z  M 244.581 417.413 L 244.581 417.413 L 244.581 417.413 Q 227.781 417.413 227.781 399.013 L 227.781 399.013 L 227.781 399.013 Q 227.781 394.613 231.781 373.613 L 231.781 373.613 L 231.781 373.613 Q 235.781 352.613 235.781 338.613 L 235.781 338.613 L 235.781 338.613 Q 235.781 335.613 234.981 333.013 L 234.981 333.013 L 234.981 333.013 Q 245.781 328.813 264.581 328.813 L 264.581 328.813 L 264.581 328.813 Q 265.581 331.613 265.581 338.413 L 265.581 338.413 L 265.581 338.413 Q 265.581 345.213 261.181 366.613 L 261.181 366.613 L 261.181 366.613 Q 256.781 388.013 256.781 394.213 L 256.781 394.213 L 256.781 394.213 Q 256.781 400.413 261.981 400.413 L 261.981 400.413 L 261.981 400.413 Q 268.181 400.413 276.981 394.213 L 276.981 394.213 L 276.981 394.213 Q 277.981 382.413 284.981 332.013 L 284.981 332.013 L 284.981 332.013 Q 291.981 329.213 310.181 329.213 L 310.181 329.213 L 313.981 329.213 L 313.981 329.213 Q 310.181 344.213 306.581 372.413 L 306.581 372.413 L 306.581 372.413 Q 302.981 400.613 300.781 411.613 L 300.781 411.613 L 300.781 411.613 Q 296.581 433.613 285.281 447.513 L 285.281 447.513 L 285.281 447.513 Q 273.981 461.413 255.781 461.413 L 255.781 461.413 L 255.781 461.413 Q 248.581 461.413 242.681 457.613 L 242.681 457.613 L 242.681 457.613 Q 236.781 453.813 236.781 447.813 L 236.781 447.813 L 236.781 447.813 Q 236.781 439.813 246.581 433.213 L 246.581 433.213 L 246.581 433.213 Q 256.381 426.613 272.981 423.013 L 272.981 423.013 L 272.981 423.013 Q 274.781 414.213 275.781 406.013 L 275.781 406.013 L 275.781 406.013 Q 259.581 417.413 244.581 417.413 Z " fill="rgb(122,229,130)"/></g></g></svg>